{"buffers":[{"uri":"Axel right isolated.bin","byteLength":19272}],"asset":{"version":"2.0","generator":"gltfpack 0.16"},"bufferViews":[{"buffer":0,"byteOffset":0,"byteLength":7992,"byteStride":12,"target":34962},{"buffer":0,"byteOffset":7992,"byteLength":7992,"byteStride":12,"target":34962},{"buffer":0,"byteOffset":15984,"byteLength":3288,"target":34963}],"accessors":[{"bufferView":0,"byteOffset":0,"componentType":5126,"count":666,"type":"VEC3","min":[-139.899994,24.5,-340],"max":[-76.9000015,41.5,-323]},{"bufferView":1,"byteOffset":0,"componentType":5126,"count":666,"type":"VEC3"},{"bufferView":2,"byteOffset":0,"componentType":5123,"count":1644,"type":"SCALAR"}],"materials":[{"pbrMetallicRoughness":{"baseColorFactor":[0.494117647,0.250980407,0.505882382,1],"metallicFactor":0},"doubleSided":true}],"meshes":[{"primitives":[{"attributes":{"POSITION":0,"NORMAL":1},"mode":4,"indices":2,"material":0}]}],"nodes":[{"mesh":0},{"name":"Axels","children":[0]}],"scenes":[{"nodes":[1]}]}