{"buffers":[{"uri":"Brake back left isolated.bin","byteLength":37208}],"asset":{"version":"2.0","generator":"gltfpack 0.16"},"bufferViews":[{"buffer":0,"byteOffset":0,"byteLength":14184,"byteStride":12,"target":34962},{"buffer":0,"byteOffset":14184,"byteLength":14184,"byteStride":12,"target":34962},{"buffer":0,"byteOffset":28368,"byteLength":8838,"target":34963}],"accessors":[{"bufferView":0,"byteOffset":0,"componentType":5126,"count":34,"type":"VEC3","min":[69.1999969,25.7999992,-129.703323],"max":[69.1999969,45,-121.303322]},{"bufferView":1,"byteOffset":0,"componentType":5126,"count":34,"type":"VEC3"},{"bufferView":2,"byteOffset":0,"componentType":5123,"count":96,"type":"SCALAR"},{"bufferView":0,"byteOffset":408,"componentType":5126,"count":54,"type":"VEC3","min":[68.4000015,25.7999992,-129.703323],"max":[69.1999969,44.0999985,-121.903328]},{"bufferView":1,"byteOffset":408,"componentType":5126,"count":54,"type":"VEC3"},{"bufferView":2,"byteOffset":192,"componentType":5123,"count":198,"type":"SCALAR"},{"bufferView":0,"byteOffset":1056,"componentType":5126,"count":164,"type":"VEC3","min":[68.3000031,25.7999992,-129.703323],"max":[69.1999969,45,-121.303322]},{"bufferView":1,"byteOffset":1056,"componentType":5126,"count":164,"type":"VEC3"},{"bufferView":2,"byteOffset":588,"componentType":5123,"count":540,"type":"SCALAR"},{"bufferView":0,"byteOffset":3024,"componentType":5126,"count":24,"type":"VEC3","min":[69.1999969,27.8999996,-127.403328],"max":[69.1999969,31,-123.603325]},{"bufferView":1,"byteOffset":3024,"componentType":5126,"count":24,"type":"VEC3"},{"bufferView":2,"byteOffset":1668,"componentType":5123,"count":66,"type":"SCALAR"},{"bufferView":0,"byteOffset":3312,"componentType":5126,"count":115,"type":"VEC3","min":[69.1999969,27.8999996,-127.403328],"max":[69.6999969,31,-123.603325]},{"bufferView":1,"byteOffset":3312,"componentType":5126,"count":115,"type":"VEC3"},{"bufferView":2,"byteOffset":1800,"componentType":5123,"count":432,"type":"SCALAR"},{"bufferView":0,"byteOffset":4692,"componentType":5126,"count":70,"type":"VEC3","min":[69.1999969,27.8999996,-127.403328],"max":[69.6999969,31,-123.603325]},{"bufferView":1,"byteOffset":4692,"componentType":5126,"count":70,"type":"VEC3"},{"bufferView":2,"byteOffset":2664,"componentType":5123,"count":192,"type":"SCALAR"},{"bufferView":0,"byteOffset":5532,"componentType":5126,"count":23,"type":"VEC3","min":[69.1999969,29.8999996,-128.103317],"max":[69.1999969,35.7000008,-122.403328]},{"bufferView":1,"byteOffset":5532,"componentType":5126,"count":23,"type":"VEC3"},{"bufferView":2,"byteOffset":3048,"componentType":5123,"count":63,"type":"SCALAR"},{"bufferView":0,"byteOffset":5808,"componentType":5126,"count":191,"type":"VEC3","min":[69.1999969,29.8999996,-128.103317],"max":[70.6999969,35.7000008,-122.403328]},{"bufferView":1,"byteOffset":5808,"componentType":5126,"count":191,"type":"VEC3"},{"bufferView":2,"byteOffset":3174,"componentType":5123,"count":780,"type":"SCALAR"},{"bufferView":0,"byteOffset":8100,"componentType":5126,"count":73,"type":"VEC3","min":[69.1999969,29.8999996,-128.103317],"max":[70.6999969,35.0999985,-123.603325]},{"bufferView":1,"byteOffset":8100,"componentType":5126,"count":73,"type":"VEC3"},{"bufferView":2,"byteOffset":4734,"componentType":5123,"count":330,"type":"SCALAR"},{"bufferView":0,"byteOffset":8976,"componentType":5126,"count":179,"type":"VEC3","min":[69.1999969,34.9000015,-128.803329],"max":[70.6999969,41.0999985,-123.203323]},{"bufferView":1,"byteOffset":8976,"componentType":5126,"count":179,"type":"VEC3"},{"bufferView":2,"byteOffset":5394,"componentType":5123,"count":774,"type":"SCALAR"},{"bufferView":0,"byteOffset":11124,"componentType":5126,"count":73,"type":"VEC3","min":[69.1999969,34.9000015,-128.803329],"max":[70.6999969,41.0999985,-125.503326]},{"bufferView":1,"byteOffset":11124,"componentType":5126,"count":73,"type":"VEC3"},{"bufferView":2,"byteOffset":6942,"componentType":5123,"count":330,"type":"SCALAR"},{"bufferView":0,"byteOffset":12000,"componentType":5126,"count":112,"type":"VEC3","min":[69.1999969,38.7999992,-129.103317],"max":[69.6999969,42.7000008,-125.503326]},{"bufferView":1,"byteOffset":12000,"componentType":5126,"count":112,"type":"VEC3"},{"bufferView":2,"byteOffset":7602,"componentType":5123,"count":426,"type":"SCALAR"},{"bufferView":0,"byteOffset":13344,"componentType":5126,"count":70,"type":"VEC3","min":[69.1999969,38.7999992,-129.103317],"max":[69.6999969,42.7000008,-125.503326]},{"bufferView":1,"byteOffset":13344,"componentType":5126,"count":70,"type":"VEC3"},{"bufferView":2,"byteOffset":8454,"componentType":5123,"count":192,"type":"SCALAR"}],"materials":[{"pbrMetallicRoughness":{"baseColorFactor":[0.749019623,0.741176486,0.733333349,1],"metallicFactor":0},"doubleSided":true},{"pbrMetallicRoughness":{"baseColorFactor":[0.960784316,0.960784316,0.964705884,1],"metallicFactor":0},"doubleSided":true}],"meshes":[{"primitives":[{"attributes":{"POSITION":0,"NORMAL":1},"mode":4,"indices":2,"material":0}]},{"primitives":[{"attributes":{"POSITION":3,"NORMAL":4},"mode":4,"indices":5,"material":1},{"attributes":{"POSITION":6,"NORMAL":7},"mode":4,"indices":8,"material":0}]},{"primitives":[{"attributes":{"POSITION":9,"NORMAL":10},"mode":4,"indices":11,"material":1}]},{"primitives":[{"attributes":{"POSITION":12,"NORMAL":13},"mode":4,"indices":14,"material":1},{"attributes":{"POSITION":15,"NORMAL":16},"mode":4,"indices":17,"material":0}]},{"primitives":[{"attributes":{"POSITION":18,"NORMAL":19},"mode":4,"indices":20,"material":1}]},{"primitives":[{"attributes":{"POSITION":21,"NORMAL":22},"mode":4,"indices":23,"material":0},{"attributes":{"POSITION":24,"NORMAL":25},"mode":4,"indices":26,"material":1}]},{"primitives":[{"attributes":{"POSITION":27,"NORMAL":28},"mode":4,"indices":29,"material":0},{"attributes":{"POSITION":30,"NORMAL":31},"mode":4,"indices":32,"material":1}]},{"primitives":[{"attributes":{"POSITION":33,"NORMAL":34},"mode":4,"indices":35,"material":1},{"attributes":{"POSITION":36,"NORMAL":37},"mode":4,"indices":38,"material":0}]}],"nodes":[{"mesh":0},{"mesh":1},{"mesh":2},{"mesh":3},{"mesh":4},{"mesh":5},{"mesh":6},{"mesh":7},{"name":"brake back left v1","children":[0]},{"name":"brake back left v1","children":[1]},{"name":"brake back left v1","children":[2]},{"name":"brake back left v1","children":[3]},{"name":"brake back left v1","children":[4]},{"name":"brake back left v1","children":[5]},{"name":"brake back left v1","children":[6]},{"name":"brake back left v1","children":[7]}],"scenes":[{"nodes":[8,9,10,11,12,13,14,15]}]}