{"buffers":[{"uri":"Brake front left isolated.bin","byteLength":36704}],"asset":{"version":"2.0","generator":"gltfpack 0.16"},"bufferViews":[{"buffer":0,"byteOffset":0,"byteLength":13932,"byteStride":12,"target":34962},{"buffer":0,"byteOffset":13932,"byteLength":13932,"byteStride":12,"target":34962},{"buffer":0,"byteOffset":27864,"byteLength":8838,"target":34963}],"accessors":[{"bufferView":0,"byteOffset":0,"componentType":5126,"count":34,"type":"VEC3","min":[69.1999969,25.7999992,-99.1033249],"max":[69.1999969,45,-90.7033234]},{"bufferView":1,"byteOffset":0,"componentType":5126,"count":34,"type":"VEC3"},{"bufferView":2,"byteOffset":0,"componentType":5123,"count":96,"type":"SCALAR"},{"bufferView":0,"byteOffset":408,"componentType":5126,"count":53,"type":"VEC3","min":[68.4000015,26.2000008,-95.7033234],"max":[69.1999969,45,-90.7033234]},{"bufferView":1,"byteOffset":408,"componentType":5126,"count":53,"type":"VEC3"},{"bufferView":2,"byteOffset":192,"componentType":5123,"count":198,"type":"SCALAR"},{"bufferView":0,"byteOffset":1044,"componentType":5126,"count":158,"type":"VEC3","min":[68.3000031,25.7999992,-99.1033249],"max":[69.1999969,45,-90.7033234]},{"bufferView":1,"byteOffset":1044,"componentType":5126,"count":158,"type":"VEC3"},{"bufferView":2,"byteOffset":588,"componentType":5123,"count":540,"type":"SCALAR"},{"bufferView":0,"byteOffset":2940,"componentType":5126,"count":24,"type":"VEC3","min":[69.1999969,38.7999992,-94.9033279],"max":[69.1999969,42.7000008,-91.3033218]},{"bufferView":1,"byteOffset":2940,"componentType":5126,"count":24,"type":"VEC3"},{"bufferView":2,"byteOffset":1668,"componentType":5123,"count":66,"type":"SCALAR"},{"bufferView":0,"byteOffset":3228,"componentType":5126,"count":112,"type":"VEC3","min":[69.1999969,38.7999992,-94.9033279],"max":[69.6999969,42.7000008,-91.3033218]},{"bufferView":1,"byteOffset":3228,"componentType":5126,"count":112,"type":"VEC3"},{"bufferView":2,"byteOffset":1800,"componentType":5123,"count":426,"type":"SCALAR"},{"bufferView":0,"byteOffset":4572,"componentType":5126,"count":70,"type":"VEC3","min":[69.1999969,38.7999992,-94.9033279],"max":[69.6999969,42.7000008,-91.3033218]},{"bufferView":1,"byteOffset":4572,"componentType":5126,"count":70,"type":"VEC3"},{"bufferView":2,"byteOffset":2652,"componentType":5123,"count":192,"type":"SCALAR"},{"bufferView":0,"byteOffset":5412,"componentType":5126,"count":23,"type":"VEC3","min":[69.1999969,34.9000015,-97.2033234],"max":[69.1999969,41.0999985,-91.6033249]},{"bufferView":1,"byteOffset":5412,"componentType":5126,"count":23,"type":"VEC3"},{"bufferView":2,"byteOffset":3036,"componentType":5123,"count":63,"type":"SCALAR"},{"bufferView":0,"byteOffset":5688,"componentType":5126,"count":182,"type":"VEC3","min":[69.1999969,34.9000015,-97.2033234],"max":[70.6999969,41.0999985,-91.6033249]},{"bufferView":1,"byteOffset":5688,"componentType":5126,"count":182,"type":"VEC3"},{"bufferView":2,"byteOffset":3162,"componentType":5123,"count":774,"type":"SCALAR"},{"bufferView":0,"byteOffset":7872,"componentType":5126,"count":73,"type":"VEC3","min":[69.1999969,34.9000015,-94.9033279],"max":[70.6999969,41.0999985,-91.6033249]},{"bufferView":1,"byteOffset":7872,"componentType":5126,"count":73,"type":"VEC3"},{"bufferView":2,"byteOffset":4710,"componentType":5123,"count":330,"type":"SCALAR"},{"bufferView":0,"byteOffset":8748,"componentType":5126,"count":115,"type":"VEC3","min":[69.1999969,27.8999996,-96.8033218],"max":[69.6999969,31,-93.0033264]},{"bufferView":1,"byteOffset":8748,"componentType":5126,"count":115,"type":"VEC3"},{"bufferView":2,"byteOffset":5370,"componentType":5123,"count":432,"type":"SCALAR"},{"bufferView":0,"byteOffset":10128,"componentType":5126,"count":70,"type":"VEC3","min":[69.1999969,27.8999996,-96.8033218],"max":[69.6999969,31,-93.0033264]},{"bufferView":1,"byteOffset":10128,"componentType":5126,"count":70,"type":"VEC3"},{"bufferView":2,"byteOffset":6234,"componentType":5123,"count":192,"type":"SCALAR"},{"bufferView":0,"byteOffset":10968,"componentType":5126,"count":174,"type":"VEC3","min":[69.1999969,29.8999996,-98.0033264],"max":[70.6999969,35.7000008,-92.3033218]},{"bufferView":1,"byteOffset":10968,"componentType":5126,"count":174,"type":"VEC3"},{"bufferView":2,"byteOffset":6618,"componentType":5123,"count":780,"type":"SCALAR"},{"bufferView":0,"byteOffset":13056,"componentType":5126,"count":73,"type":"VEC3","min":[69.1999969,29.8999996,-96.8033218],"max":[70.6999969,35.0999985,-92.3033218]},{"bufferView":1,"byteOffset":13056,"componentType":5126,"count":73,"type":"VEC3"},{"bufferView":2,"byteOffset":8178,"componentType":5123,"count":330,"type":"SCALAR"}],"materials":[{"pbrMetallicRoughness":{"baseColorFactor":[0.749019623,0.741176486,0.733333349,1],"metallicFactor":0},"doubleSided":true},{"pbrMetallicRoughness":{"baseColorFactor":[0.960784316,0.960784316,0.964705884,1],"metallicFactor":0},"doubleSided":true}],"meshes":[{"primitives":[{"attributes":{"POSITION":0,"NORMAL":1},"mode":4,"indices":2,"material":0}]},{"primitives":[{"attributes":{"POSITION":3,"NORMAL":4},"mode":4,"indices":5,"material":1},{"attributes":{"POSITION":6,"NORMAL":7},"mode":4,"indices":8,"material":0}]},{"primitives":[{"attributes":{"POSITION":9,"NORMAL":10},"mode":4,"indices":11,"material":1}]},{"primitives":[{"attributes":{"POSITION":12,"NORMAL":13},"mode":4,"indices":14,"material":1},{"attributes":{"POSITION":15,"NORMAL":16},"mode":4,"indices":17,"material":0}]},{"primitives":[{"attributes":{"POSITION":18,"NORMAL":19},"mode":4,"indices":20,"material":1}]},{"primitives":[{"attributes":{"POSITION":21,"NORMAL":22},"mode":4,"indices":23,"material":0},{"attributes":{"POSITION":24,"NORMAL":25},"mode":4,"indices":26,"material":1}]},{"primitives":[{"attributes":{"POSITION":27,"NORMAL":28},"mode":4,"indices":29,"material":1},{"attributes":{"POSITION":30,"NORMAL":31},"mode":4,"indices":32,"material":0}]},{"primitives":[{"attributes":{"POSITION":33,"NORMAL":34},"mode":4,"indices":35,"material":0},{"attributes":{"POSITION":36,"NORMAL":37},"mode":4,"indices":38,"material":1}]}],"nodes":[{"mesh":0},{"mesh":1},{"mesh":2},{"mesh":3},{"mesh":4},{"mesh":5},{"mesh":6},{"mesh":7},{"name":"brake front left v2","children":[0]},{"name":"brake front left v2","children":[1]},{"name":"brake front left v2","children":[2]},{"name":"brake front left v2","children":[3]},{"name":"brake front left v2","children":[4]},{"name":"brake front left v2","children":[5]},{"name":"brake front left v2","children":[6]},{"name":"brake front left v2","children":[7]}],"scenes":[{"nodes":[8,9,10,11,12,13,14,15]}]}