{"buffers":[{"uri":"Brakes isolated.bin","byteLength":147576}],"asset":{"version":"2.0","generator":"gltfpack 0.16"},"bufferViews":[{"buffer":0,"byteOffset":0,"byteLength":56112,"byteStride":12,"target":34962},{"buffer":0,"byteOffset":56112,"byteLength":56112,"byteStride":12,"target":34962},{"buffer":0,"byteOffset":112224,"byteLength":35352,"target":34963}],"accessors":[{"bufferView":0,"byteOffset":0,"componentType":5126,"count":34,"type":"VEC3","min":[69.1999969,25.7999992,-99.1033249],"max":[69.1999969,45,-90.7033234]},{"bufferView":1,"byteOffset":0,"componentType":5126,"count":34,"type":"VEC3"},{"bufferView":2,"byteOffset":0,"componentType":5123,"count":96,"type":"SCALAR"},{"bufferView":0,"byteOffset":408,"componentType":5126,"count":53,"type":"VEC3","min":[68.4000015,26.2000008,-95.7033234],"max":[69.1999969,45,-90.7033234]},{"bufferView":1,"byteOffset":408,"componentType":5126,"count":53,"type":"VEC3"},{"bufferView":2,"byteOffset":192,"componentType":5123,"count":198,"type":"SCALAR"},{"bufferView":0,"byteOffset":1044,"componentType":5126,"count":158,"type":"VEC3","min":[68.3000031,25.7999992,-99.1033249],"max":[69.1999969,45,-90.7033234]},{"bufferView":1,"byteOffset":1044,"componentType":5126,"count":158,"type":"VEC3"},{"bufferView":2,"byteOffset":588,"componentType":5123,"count":540,"type":"SCALAR"},{"bufferView":0,"byteOffset":2940,"componentType":5126,"count":24,"type":"VEC3","min":[69.1999969,38.7999992,-94.9033279],"max":[69.1999969,42.7000008,-91.3033218]},{"bufferView":1,"byteOffset":2940,"componentType":5126,"count":24,"type":"VEC3"},{"bufferView":2,"byteOffset":1668,"componentType":5123,"count":66,"type":"SCALAR"},{"bufferView":0,"byteOffset":3228,"componentType":5126,"count":112,"type":"VEC3","min":[69.1999969,38.7999992,-94.9033279],"max":[69.6999969,42.7000008,-91.3033218]},{"bufferView":1,"byteOffset":3228,"componentType":5126,"count":112,"type":"VEC3"},{"bufferView":2,"byteOffset":1800,"componentType":5123,"count":426,"type":"SCALAR"},{"bufferView":0,"byteOffset":4572,"componentType":5126,"count":70,"type":"VEC3","min":[69.1999969,38.7999992,-94.9033279],"max":[69.6999969,42.7000008,-91.3033218]},{"bufferView":1,"byteOffset":4572,"componentType":5126,"count":70,"type":"VEC3"},{"bufferView":2,"byteOffset":2652,"componentType":5123,"count":192,"type":"SCALAR"},{"bufferView":0,"byteOffset":5412,"componentType":5126,"count":23,"type":"VEC3","min":[69.1999969,34.9000015,-97.2033234],"max":[69.1999969,41.0999985,-91.6033249]},{"bufferView":1,"byteOffset":5412,"componentType":5126,"count":23,"type":"VEC3"},{"bufferView":2,"byteOffset":3036,"componentType":5123,"count":63,"type":"SCALAR"},{"bufferView":0,"byteOffset":5688,"componentType":5126,"count":182,"type":"VEC3","min":[69.1999969,34.9000015,-97.2033234],"max":[70.6999969,41.0999985,-91.6033249]},{"bufferView":1,"byteOffset":5688,"componentType":5126,"count":182,"type":"VEC3"},{"bufferView":2,"byteOffset":3162,"componentType":5123,"count":774,"type":"SCALAR"},{"bufferView":0,"byteOffset":7872,"componentType":5126,"count":73,"type":"VEC3","min":[69.1999969,34.9000015,-94.9033279],"max":[70.6999969,41.0999985,-91.6033249]},{"bufferView":1,"byteOffset":7872,"componentType":5126,"count":73,"type":"VEC3"},{"bufferView":2,"byteOffset":4710,"componentType":5123,"count":330,"type":"SCALAR"},{"bufferView":0,"byteOffset":8748,"componentType":5126,"count":115,"type":"VEC3","min":[69.1999969,27.8999996,-96.8033218],"max":[69.6999969,31,-93.0033264]},{"bufferView":1,"byteOffset":8748,"componentType":5126,"count":115,"type":"VEC3"},{"bufferView":2,"byteOffset":5370,"componentType":5123,"count":432,"type":"SCALAR"},{"bufferView":0,"byteOffset":10128,"componentType":5126,"count":70,"type":"VEC3","min":[69.1999969,27.8999996,-96.8033218],"max":[69.6999969,31,-93.0033264]},{"bufferView":1,"byteOffset":10128,"componentType":5126,"count":70,"type":"VEC3"},{"bufferView":2,"byteOffset":6234,"componentType":5123,"count":192,"type":"SCALAR"},{"bufferView":0,"byteOffset":10968,"componentType":5126,"count":174,"type":"VEC3","min":[69.1999969,29.8999996,-98.0033264],"max":[70.6999969,35.7000008,-92.3033218]},{"bufferView":1,"byteOffset":10968,"componentType":5126,"count":174,"type":"VEC3"},{"bufferView":2,"byteOffset":6618,"componentType":5123,"count":780,"type":"SCALAR"},{"bufferView":0,"byteOffset":13056,"componentType":5126,"count":73,"type":"VEC3","min":[69.1999969,29.8999996,-96.8033218],"max":[70.6999969,35.0999985,-92.3033218]},{"bufferView":1,"byteOffset":13056,"componentType":5126,"count":73,"type":"VEC3"},{"bufferView":2,"byteOffset":8178,"componentType":5123,"count":330,"type":"SCALAR"},{"bufferView":0,"byteOffset":13932,"componentType":5126,"count":34,"type":"VEC3","min":[69.1999969,25.7999992,-129.703323],"max":[69.1999969,45,-121.303322]},{"bufferView":1,"byteOffset":13932,"componentType":5126,"count":34,"type":"VEC3"},{"bufferView":2,"byteOffset":8838,"componentType":5123,"count":96,"type":"SCALAR"},{"bufferView":0,"byteOffset":14340,"componentType":5126,"count":54,"type":"VEC3","min":[68.4000015,25.7999992,-129.703323],"max":[69.1999969,44.0999985,-121.903328]},{"bufferView":1,"byteOffset":14340,"componentType":5126,"count":54,"type":"VEC3"},{"bufferView":2,"byteOffset":9030,"componentType":5123,"count":198,"type":"SCALAR"},{"bufferView":0,"byteOffset":14988,"componentType":5126,"count":164,"type":"VEC3","min":[68.3000031,25.7999992,-129.703323],"max":[69.1999969,45,-121.303322]},{"bufferView":1,"byteOffset":14988,"componentType":5126,"count":164,"type":"VEC3"},{"bufferView":2,"byteOffset":9426,"componentType":5123,"count":540,"type":"SCALAR"},{"bufferView":0,"byteOffset":16956,"componentType":5126,"count":24,"type":"VEC3","min":[69.1999969,27.8999996,-127.403328],"max":[69.1999969,31,-123.603325]},{"bufferView":1,"byteOffset":16956,"componentType":5126,"count":24,"type":"VEC3"},{"bufferView":2,"byteOffset":10506,"componentType":5123,"count":66,"type":"SCALAR"},{"bufferView":0,"byteOffset":17244,"componentType":5126,"count":115,"type":"VEC3","min":[69.1999969,27.8999996,-127.403328],"max":[69.6999969,31,-123.603325]},{"bufferView":1,"byteOffset":17244,"componentType":5126,"count":115,"type":"VEC3"},{"bufferView":2,"byteOffset":10638,"componentType":5123,"count":432,"type":"SCALAR"},{"bufferView":0,"byteOffset":18624,"componentType":5126,"count":70,"type":"VEC3","min":[69.1999969,27.8999996,-127.403328],"max":[69.6999969,31,-123.603325]},{"bufferView":1,"byteOffset":18624,"componentType":5126,"count":70,"type":"VEC3"},{"bufferView":2,"byteOffset":11502,"componentType":5123,"count":192,"type":"SCALAR"},{"bufferView":0,"byteOffset":19464,"componentType":5126,"count":23,"type":"VEC3","min":[69.1999969,29.8999996,-128.103317],"max":[69.1999969,35.7000008,-122.403328]},{"bufferView":1,"byteOffset":19464,"componentType":5126,"count":23,"type":"VEC3"},{"bufferView":2,"byteOffset":11886,"componentType":5123,"count":63,"type":"SCALAR"},{"bufferView":0,"byteOffset":19740,"componentType":5126,"count":191,"type":"VEC3","min":[69.1999969,29.8999996,-128.103317],"max":[70.6999969,35.7000008,-122.403328]},{"bufferView":1,"byteOffset":19740,"componentType":5126,"count":191,"type":"VEC3"},{"bufferView":2,"byteOffset":12012,"componentType":5123,"count":780,"type":"SCALAR"},{"bufferView":0,"byteOffset":22032,"componentType":5126,"count":73,"type":"VEC3","min":[69.1999969,29.8999996,-128.103317],"max":[70.6999969,35.0999985,-123.603325]},{"bufferView":1,"byteOffset":22032,"componentType":5126,"count":73,"type":"VEC3"},{"bufferView":2,"byteOffset":13572,"componentType":5123,"count":330,"type":"SCALAR"},{"bufferView":0,"byteOffset":22908,"componentType":5126,"count":179,"type":"VEC3","min":[69.1999969,34.9000015,-128.803329],"max":[70.6999969,41.0999985,-123.203323]},{"bufferView":1,"byteOffset":22908,"componentType":5126,"count":179,"type":"VEC3"},{"bufferView":2,"byteOffset":14232,"componentType":5123,"count":774,"type":"SCALAR"},{"bufferView":0,"byteOffset":25056,"componentType":5126,"count":73,"type":"VEC3","min":[69.1999969,34.9000015,-128.803329],"max":[70.6999969,41.0999985,-125.503326]},{"bufferView":1,"byteOffset":25056,"componentType":5126,"count":73,"type":"VEC3"},{"bufferView":2,"byteOffset":15780,"componentType":5123,"count":330,"type":"SCALAR"},{"bufferView":0,"byteOffset":25932,"componentType":5126,"count":112,"type":"VEC3","min":[69.1999969,38.7999992,-129.103317],"max":[69.6999969,42.7000008,-125.503326]},{"bufferView":1,"byteOffset":25932,"componentType":5126,"count":112,"type":"VEC3"},{"bufferView":2,"byteOffset":16440,"componentType":5123,"count":426,"type":"SCALAR"},{"bufferView":0,"byteOffset":27276,"componentType":5126,"count":70,"type":"VEC3","min":[69.1999969,38.7999992,-129.103317],"max":[69.6999969,42.7000008,-125.503326]},{"bufferView":1,"byteOffset":27276,"componentType":5126,"count":70,"type":"VEC3"},{"bufferView":2,"byteOffset":17292,"componentType":5123,"count":192,"type":"SCALAR"},{"bufferView":0,"byteOffset":28116,"componentType":5126,"count":34,"type":"VEC3","min":[45.7999992,25.7999992,-99.1033249],"max":[45.7999992,45,-90.7033234]},{"bufferView":1,"byteOffset":28116,"componentType":5126,"count":34,"type":"VEC3"},{"bufferView":2,"byteOffset":17676,"componentType":5123,"count":96,"type":"SCALAR"},{"bufferView":0,"byteOffset":28524,"componentType":5126,"count":53,"type":"VEC3","min":[45.7999992,26.2000008,-95.7033234],"max":[46.5999985,45,-90.7033234]},{"bufferView":1,"byteOffset":28524,"componentType":5126,"count":53,"type":"VEC3"},{"bufferView":2,"byteOffset":17868,"componentType":5123,"count":198,"type":"SCALAR"},{"bufferView":0,"byteOffset":29160,"componentType":5126,"count":156,"type":"VEC3","min":[45.7999992,25.7999992,-99.1033249],"max":[46.7000008,45,-90.7033234]},{"bufferView":1,"byteOffset":29160,"componentType":5126,"count":156,"type":"VEC3"},{"bufferView":2,"byteOffset":18264,"componentType":5123,"count":540,"type":"SCALAR"},{"bufferView":0,"byteOffset":31032,"componentType":5126,"count":24,"type":"VEC3","min":[45.7999992,38.7999992,-94.9033279],"max":[45.7999992,42.7000008,-91.3033218]},{"bufferView":1,"byteOffset":31032,"componentType":5126,"count":24,"type":"VEC3"},{"bufferView":2,"byteOffset":19344,"componentType":5123,"count":66,"type":"SCALAR"},{"bufferView":0,"byteOffset":31320,"componentType":5126,"count":112,"type":"VEC3","min":[45.2999992,38.7999992,-94.9033279],"max":[45.7999992,42.7000008,-91.3033218]},{"bufferView":1,"byteOffset":31320,"componentType":5126,"count":112,"type":"VEC3"},{"bufferView":2,"byteOffset":19476,"componentType":5123,"count":426,"type":"SCALAR"},{"bufferView":0,"byteOffset":32664,"componentType":5126,"count":70,"type":"VEC3","min":[45.2999992,38.7999992,-94.9033279],"max":[45.7999992,42.7000008,-91.3033218]},{"bufferView":1,"byteOffset":32664,"componentType":5126,"count":70,"type":"VEC3"},{"bufferView":2,"byteOffset":20328,"componentType":5123,"count":192,"type":"SCALAR"},{"bufferView":0,"byteOffset":33504,"componentType":5126,"count":23,"type":"VEC3","min":[45.7999992,34.9000015,-97.2033234],"max":[45.7999992,41.0999985,-91.6033249]},{"bufferView":1,"byteOffset":33504,"componentType":5126,"count":23,"type":"VEC3"},{"bufferView":2,"byteOffset":20712,"componentType":5123,"count":63,"type":"SCALAR"},{"bufferView":0,"byteOffset":33780,"componentType":5126,"count":179,"type":"VEC3","min":[44.2999992,34.9000015,-97.2033234],"max":[45.7999992,41.0999985,-91.6033249]},{"bufferView":1,"byteOffset":33780,"componentType":5126,"count":179,"type":"VEC3"},{"bufferView":2,"byteOffset":20838,"componentType":5123,"count":774,"type":"SCALAR"},{"bufferView":0,"byteOffset":35928,"componentType":5126,"count":73,"type":"VEC3","min":[44.2999992,34.9000015,-94.9033279],"max":[45.7999992,41.0999985,-91.6033249]},{"bufferView":1,"byteOffset":35928,"componentType":5126,"count":73,"type":"VEC3"},{"bufferView":2,"byteOffset":22386,"componentType":5123,"count":330,"type":"SCALAR"},{"bufferView":0,"byteOffset":36804,"componentType":5126,"count":115,"type":"VEC3","min":[45.2999992,27.8999996,-96.8033218],"max":[45.7999992,31,-93.0033264]},{"bufferView":1,"byteOffset":36804,"componentType":5126,"count":115,"type":"VEC3"},{"bufferView":2,"byteOffset":23046,"componentType":5123,"count":432,"type":"SCALAR"},{"bufferView":0,"byteOffset":38184,"componentType":5126,"count":70,"type":"VEC3","min":[45.2999992,27.8999996,-96.8033218],"max":[45.7999992,31,-93.0033264]},{"bufferView":1,"byteOffset":38184,"componentType":5126,"count":70,"type":"VEC3"},{"bufferView":2,"byteOffset":23910,"componentType":5123,"count":192,"type":"SCALAR"},{"bufferView":0,"byteOffset":39024,"componentType":5126,"count":191,"type":"VEC3","min":[44.2999992,29.8999996,-98.0033264],"max":[45.7999992,35.7000008,-92.3033218]},{"bufferView":1,"byteOffset":39024,"componentType":5126,"count":191,"type":"VEC3"},{"bufferView":2,"byteOffset":24294,"componentType":5123,"count":780,"type":"SCALAR"},{"bufferView":0,"byteOffset":41316,"componentType":5126,"count":73,"type":"VEC3","min":[44.2999992,29.8999996,-96.8033218],"max":[45.7999992,35.0999985,-92.3033218]},{"bufferView":1,"byteOffset":41316,"componentType":5126,"count":73,"type":"VEC3"},{"bufferView":2,"byteOffset":25854,"componentType":5123,"count":330,"type":"SCALAR"},{"bufferView":0,"byteOffset":42192,"componentType":5126,"count":34,"type":"VEC3","min":[45.7999992,25.7999992,-129.703323],"max":[45.7999992,45,-121.303322]},{"bufferView":1,"byteOffset":42192,"componentType":5126,"count":34,"type":"VEC3"},{"bufferView":2,"byteOffset":26514,"componentType":5123,"count":96,"type":"SCALAR"},{"bufferView":0,"byteOffset":42600,"componentType":5126,"count":54,"type":"VEC3","min":[45.7999992,25.7999992,-129.703323],"max":[46.5999985,44.0999985,-121.903328]},{"bufferView":1,"byteOffset":42600,"componentType":5126,"count":54,"type":"VEC3"},{"bufferView":2,"byteOffset":26706,"componentType":5123,"count":198,"type":"SCALAR"},{"bufferView":0,"byteOffset":43248,"componentType":5126,"count":159,"type":"VEC3","min":[45.7999992,25.7999992,-129.703323],"max":[46.7000008,45,-121.303322]},{"bufferView":1,"byteOffset":43248,"componentType":5126,"count":159,"type":"VEC3"},{"bufferView":2,"byteOffset":27102,"componentType":5123,"count":540,"type":"SCALAR"},{"bufferView":0,"byteOffset":45156,"componentType":5126,"count":24,"type":"VEC3","min":[45.7999992,27.8999996,-127.403328],"max":[45.7999992,31,-123.603325]},{"bufferView":1,"byteOffset":45156,"componentType":5126,"count":24,"type":"VEC3"},{"bufferView":2,"byteOffset":28182,"componentType":5123,"count":66,"type":"SCALAR"},{"bufferView":0,"byteOffset":45444,"componentType":5126,"count":115,"type":"VEC3","min":[45.2999992,27.8999996,-127.403328],"max":[45.7999992,31,-123.603325]},{"bufferView":1,"byteOffset":45444,"componentType":5126,"count":115,"type":"VEC3"},{"bufferView":2,"byteOffset":28314,"componentType":5123,"count":432,"type":"SCALAR"},{"bufferView":0,"byteOffset":46824,"componentType":5126,"count":70,"type":"VEC3","min":[45.2999992,27.8999996,-127.403328],"max":[45.7999992,31,-123.603325]},{"bufferView":1,"byteOffset":46824,"componentType":5126,"count":70,"type":"VEC3"},{"bufferView":2,"byteOffset":29178,"componentType":5123,"count":192,"type":"SCALAR"},{"bufferView":0,"byteOffset":47664,"componentType":5126,"count":23,"type":"VEC3","min":[45.7999992,29.8999996,-128.103317],"max":[45.7999992,35.7000008,-122.403328]},{"bufferView":1,"byteOffset":47664,"componentType":5126,"count":23,"type":"VEC3"},{"bufferView":2,"byteOffset":29562,"componentType":5123,"count":63,"type":"SCALAR"},{"bufferView":0,"byteOffset":47940,"componentType":5126,"count":176,"type":"VEC3","min":[44.2999992,29.8999996,-128.103317],"max":[45.7999992,35.7000008,-122.403328]},{"bufferView":1,"byteOffset":47940,"componentType":5126,"count":176,"type":"VEC3"},{"bufferView":2,"byteOffset":29688,"componentType":5123,"count":780,"type":"SCALAR"},{"bufferView":0,"byteOffset":50052,"componentType":5126,"count":73,"type":"VEC3","min":[44.2999992,29.8999996,-128.103317],"max":[45.7999992,35.0999985,-123.603325]},{"bufferView":1,"byteOffset":50052,"componentType":5126,"count":73,"type":"VEC3"},{"bufferView":2,"byteOffset":31248,"componentType":5123,"count":330,"type":"SCALAR"},{"bufferView":0,"byteOffset":50928,"componentType":5126,"count":177,"type":"VEC3","min":[44.2999992,34.9000015,-128.803329],"max":[45.7999992,41.0999985,-123.203323]},{"bufferView":1,"byteOffset":50928,"componentType":5126,"count":177,"type":"VEC3"},{"bufferView":2,"byteOffset":31908,"componentType":5123,"count":774,"type":"SCALAR"},{"bufferView":0,"byteOffset":53052,"componentType":5126,"count":73,"type":"VEC3","min":[44.2999992,34.9000015,-128.803329],"max":[45.7999992,41.0999985,-125.503326]},{"bufferView":1,"byteOffset":53052,"componentType":5126,"count":73,"type":"VEC3"},{"bufferView":2,"byteOffset":33456,"componentType":5123,"count":330,"type":"SCALAR"},{"bufferView":0,"byteOffset":53928,"componentType":5126,"count":112,"type":"VEC3","min":[45.2999992,38.7999992,-129.103317],"max":[45.7999992,42.7000008,-125.503326]},{"bufferView":1,"byteOffset":53928,"componentType":5126,"count":112,"type":"VEC3"},{"bufferView":2,"byteOffset":34116,"componentType":5123,"count":426,"type":"SCALAR"},{"bufferView":0,"byteOffset":55272,"componentType":5126,"count":70,"type":"VEC3","min":[45.2999992,38.7999992,-129.103317],"max":[45.7999992,42.7000008,-125.503326]},{"bufferView":1,"byteOffset":55272,"componentType":5126,"count":70,"type":"VEC3"},{"bufferView":2,"byteOffset":34968,"componentType":5123,"count":192,"type":"SCALAR"}],"materials":[{"pbrMetallicRoughness":{"baseColorFactor":[0.749019623,0.741176486,0.733333349,1],"metallicFactor":0},"doubleSided":true},{"pbrMetallicRoughness":{"baseColorFactor":[0.960784316,0.960784316,0.964705884,1],"metallicFactor":0},"doubleSided":true}],"meshes":[{"primitives":[{"attributes":{"POSITION":0,"NORMAL":1},"mode":4,"indices":2,"material":0}]},{"primitives":[{"attributes":{"POSITION":3,"NORMAL":4},"mode":4,"indices":5,"material":1},{"attributes":{"POSITION":6,"NORMAL":7},"mode":4,"indices":8,"material":0}]},{"primitives":[{"attributes":{"POSITION":9,"NORMAL":10},"mode":4,"indices":11,"material":1}]},{"primitives":[{"attributes":{"POSITION":12,"NORMAL":13},"mode":4,"indices":14,"material":1},{"attributes":{"POSITION":15,"NORMAL":16},"mode":4,"indices":17,"material":0}]},{"primitives":[{"attributes":{"POSITION":18,"NORMAL":19},"mode":4,"indices":20,"material":1}]},{"primitives":[{"attributes":{"POSITION":21,"NORMAL":22},"mode":4,"indices":23,"material":0},{"attributes":{"POSITION":24,"NORMAL":25},"mode":4,"indices":26,"material":1}]},{"primitives":[{"attributes":{"POSITION":27,"NORMAL":28},"mode":4,"indices":29,"material":1},{"attributes":{"POSITION":30,"NORMAL":31},"mode":4,"indices":32,"material":0}]},{"primitives":[{"attributes":{"POSITION":33,"NORMAL":34},"mode":4,"indices":35,"material":0},{"attributes":{"POSITION":36,"NORMAL":37},"mode":4,"indices":38,"material":1}]},{"primitives":[{"attributes":{"POSITION":39,"NORMAL":40},"mode":4,"indices":41,"material":0}]},{"primitives":[{"attributes":{"POSITION":42,"NORMAL":43},"mode":4,"indices":44,"material":1},{"attributes":{"POSITION":45,"NORMAL":46},"mode":4,"indices":47,"material":0}]},{"primitives":[{"attributes":{"POSITION":48,"NORMAL":49},"mode":4,"indices":50,"material":1}]},{"primitives":[{"attributes":{"POSITION":51,"NORMAL":52},"mode":4,"indices":53,"material":1},{"attributes":{"POSITION":54,"NORMAL":55},"mode":4,"indices":56,"material":0}]},{"primitives":[{"attributes":{"POSITION":57,"NORMAL":58},"mode":4,"indices":59,"material":1}]},{"primitives":[{"attributes":{"POSITION":60,"NORMAL":61},"mode":4,"indices":62,"material":0},{"attributes":{"POSITION":63,"NORMAL":64},"mode":4,"indices":65,"material":1}]},{"primitives":[{"attributes":{"POSITION":66,"NORMAL":67},"mode":4,"indices":68,"material":0},{"attributes":{"POSITION":69,"NORMAL":70},"mode":4,"indices":71,"material":1}]},{"primitives":[{"attributes":{"POSITION":72,"NORMAL":73},"mode":4,"indices":74,"material":1},{"attributes":{"POSITION":75,"NORMAL":76},"mode":4,"indices":77,"material":0}]},{"primitives":[{"attributes":{"POSITION":78,"NORMAL":79},"mode":4,"indices":80,"material":0}]},{"primitives":[{"attributes":{"POSITION":81,"NORMAL":82},"mode":4,"indices":83,"material":1},{"attributes":{"POSITION":84,"NORMAL":85},"mode":4,"indices":86,"material":0}]},{"primitives":[{"attributes":{"POSITION":87,"NORMAL":88},"mode":4,"indices":89,"material":1}]},{"primitives":[{"attributes":{"POSITION":90,"NORMAL":91},"mode":4,"indices":92,"material":1},{"attributes":{"POSITION":93,"NORMAL":94},"mode":4,"indices":95,"material":0}]},{"primitives":[{"attributes":{"POSITION":96,"NORMAL":97},"mode":4,"indices":98,"material":1}]},{"primitives":[{"attributes":{"POSITION":99,"NORMAL":100},"mode":4,"indices":101,"material":0},{"attributes":{"POSITION":102,"NORMAL":103},"mode":4,"indices":104,"material":1}]},{"primitives":[{"attributes":{"POSITION":105,"NORMAL":106},"mode":4,"indices":107,"material":1},{"attributes":{"POSITION":108,"NORMAL":109},"mode":4,"indices":110,"material":0}]},{"primitives":[{"attributes":{"POSITION":111,"NORMAL":112},"mode":4,"indices":113,"material":0},{"attributes":{"POSITION":114,"NORMAL":115},"mode":4,"indices":116,"material":1}]},{"primitives":[{"attributes":{"POSITION":117,"NORMAL":118},"mode":4,"indices":119,"material":0}]},{"primitives":[{"attributes":{"POSITION":120,"NORMAL":121},"mode":4,"indices":122,"material":1},{"attributes":{"POSITION":123,"NORMAL":124},"mode":4,"indices":125,"material":0}]},{"primitives":[{"attributes":{"POSITION":126,"NORMAL":127},"mode":4,"indices":128,"material":1}]},{"primitives":[{"attributes":{"POSITION":129,"NORMAL":130},"mode":4,"indices":131,"material":1},{"attributes":{"POSITION":132,"NORMAL":133},"mode":4,"indices":134,"material":0}]},{"primitives":[{"attributes":{"POSITION":135,"NORMAL":136},"mode":4,"indices":137,"material":1}]},{"primitives":[{"attributes":{"POSITION":138,"NORMAL":139},"mode":4,"indices":140,"material":0},{"attributes":{"POSITION":141,"NORMAL":142},"mode":4,"indices":143,"material":1}]},{"primitives":[{"attributes":{"POSITION":144,"NORMAL":145},"mode":4,"indices":146,"material":0},{"attributes":{"POSITION":147,"NORMAL":148},"mode":4,"indices":149,"material":1}]},{"primitives":[{"attributes":{"POSITION":150,"NORMAL":151},"mode":4,"indices":152,"material":1},{"attributes":{"POSITION":153,"NORMAL":154},"mode":4,"indices":155,"material":0}]}],"nodes":[{"mesh":0},{"mesh":1},{"mesh":2},{"mesh":3},{"mesh":4},{"mesh":5},{"mesh":6},{"mesh":7},{"mesh":8},{"mesh":9},{"mesh":10},{"mesh":11},{"mesh":12},{"mesh":13},{"mesh":14},{"mesh":15},{"mesh":16},{"mesh":17},{"mesh":18},{"mesh":19},{"mesh":20},{"mesh":21},{"mesh":22},{"mesh":23},{"mesh":24},{"mesh":25},{"mesh":26},{"mesh":27},{"mesh":28},{"mesh":29},{"mesh":30},{"mesh":31},{"name":"brake front left v2","children":[0]},{"name":"brake front left v2","children":[1]},{"name":"brake front left v2","children":[2]},{"name":"brake front left v2","children":[3]},{"name":"brake front left v2","children":[4]},{"name":"brake front left v2","children":[5]},{"name":"brake front left v2","children":[6]},{"name":"brake front left v2","children":[7]},{"name":"brake back left v1","children":[8]},{"name":"brake back left v1","children":[9]},{"name":"brake back left v1","children":[10]},{"name":"brake back left v1","children":[11]},{"name":"brake back left v1","children":[12]},{"name":"brake back left v1","children":[13]},{"name":"brake back left v1","children":[14]},{"name":"brake back left v1","children":[15]},{"name":"brake front right v2(Mirror) (1)","children":[16]},{"name":"brake front right v2(Mirror) (1)","children":[17]},{"name":"brake front right v2(Mirror) (1)","children":[18]},{"name":"brake front right v2(Mirror) (1)","children":[19]},{"name":"brake front right v2(Mirror) (1)","children":[20]},{"name":"brake front right v2(Mirror) (1)","children":[21]},{"name":"brake front right v2(Mirror) (1)","children":[22]},{"name":"brake front right v2(Mirror) (1)","children":[23]},{"name":"brake back right v1(Mirror) (1)","children":[24]},{"name":"brake back right v1(Mirror) (1)","children":[25]},{"name":"brake back right v1(Mirror) (1)","children":[26]},{"name":"brake back right v1(Mirror) (1)","children":[27]},{"name":"brake back right v1(Mirror) (1)","children":[28]},{"name":"brake back right v1(Mirror) (1)","children":[29]},{"name":"brake back right v1(Mirror) (1)","children":[30]},{"name":"brake back right v1(Mirror) (1)","children":[31]}],"scenes":[{"nodes":[32,33,34,35,36,37,38,39,40,41,42,43,44,45,46,47,48,49,50,51,52,53,54,55,56,57,58,59,60,61,62,63]}]}