{"buffers":[{"uri":"Differential cover plate isolated.bin","byteLength":74736}],"asset":{"version":"2.0","generator":"gltfpack 0.16"},"bufferViews":[{"buffer":0,"byteOffset":0,"byteLength":26988,"byteStride":12,"target":34962},{"buffer":0,"byteOffset":26988,"byteLength":26988,"byteStride":12,"target":34962},{"buffer":0,"byteOffset":53976,"byteLength":20760,"target":34963}],"accessors":[{"bufferView":0,"byteOffset":0,"componentType":5126,"count":2249,"type":"VEC3","min":[-19.1000004,14,-369.100006],"max":[19.1000004,52,-357.5]},{"bufferView":1,"byteOffset":0,"componentType":5126,"count":2249,"type":"VEC3"},{"bufferView":2,"byteOffset":0,"componentType":5123,"count":10380,"type":"SCALAR"}],"materials":[{"pbrMetallicRoughness":{"baseColorFactor":[0.80392158,0.952941179,0.686274529,1],"metallicFactor":0},"doubleSided":true}],"meshes":[{"primitives":[{"attributes":{"POSITION":0,"NORMAL":1},"mode":4,"indices":2,"material":0}]}],"nodes":[{"mesh":0},{"name":"Cover","children":[0]}],"scenes":[{"nodes":[1]}]}