{"buffers":[{"uri":"Differential bolts isolated.bin","byteLength":63072}],"asset":{"version":"2.0","generator":"gltfpack 0.16"},"bufferViews":[{"buffer":0,"byteOffset":0,"byteLength":25824,"byteStride":12,"target":34962},{"buffer":0,"byteOffset":25824,"byteLength":25824,"byteStride":12,"target":34962},{"buffer":0,"byteOffset":51648,"byteLength":11424,"target":34963}],"accessors":[{"bufferView":0,"byteOffset":0,"componentType":5126,"count":180,"type":"VEC3","min":[16.1000004,32.2000008,-351],"max":[18.5,34.9000015,-348.5]},{"bufferView":1,"byteOffset":0,"componentType":5126,"count":180,"type":"VEC3"},{"bufferView":2,"byteOffset":0,"componentType":5123,"count":480,"type":"SCALAR"},{"bufferView":0,"byteOffset":2160,"componentType":5126,"count":184,"type":"VEC3","min":[-11.1999998,18.3999996,-351],"max":[-8.80000019,21.2000008,-348.5]},{"bufferView":1,"byteOffset":2160,"componentType":5126,"count":184,"type":"VEC3"},{"bufferView":2,"byteOffset":960,"componentType":5123,"count":504,"type":"SCALAR"},{"bufferView":0,"byteOffset":4368,"componentType":5126,"count":182,"type":"VEC3","min":[-11,45.2000008,-351],"max":[-8.5,47.9000015,-348.5]},{"bufferView":1,"byteOffset":4368,"componentType":5126,"count":182,"type":"VEC3"},{"bufferView":2,"byteOffset":1968,"componentType":5123,"count":492,"type":"SCALAR"},{"bufferView":0,"byteOffset":6552,"componentType":5126,"count":180,"type":"VEC3","min":[-17.8999996,39.7999992,-351],"max":[-15.5,42.5999985,-348.5]},{"bufferView":1,"byteOffset":6552,"componentType":5126,"count":180,"type":"VEC3"},{"bufferView":2,"byteOffset":2952,"componentType":5123,"count":480,"type":"SCALAR"},{"bufferView":0,"byteOffset":8712,"componentType":5126,"count":178,"type":"VEC3","min":[-1.10000002,14.8000002,-351],"max":[1.20000005,17.6000004,-348.5]},{"bufferView":1,"byteOffset":8712,"componentType":5126,"count":178,"type":"VEC3"},{"bufferView":2,"byteOffset":3912,"componentType":5123,"count":468,"type":"SCALAR"},{"bufferView":0,"byteOffset":10848,"componentType":5126,"count":176,"type":"VEC3","min":[15.3000002,39.7999992,-351],"max":[17.7999992,42.5999985,-348.5]},{"bufferView":1,"byteOffset":10848,"componentType":5126,"count":176,"type":"VEC3"},{"bufferView":2,"byteOffset":4848,"componentType":5123,"count":456,"type":"SCALAR"},{"bufferView":0,"byteOffset":12960,"componentType":5126,"count":180,"type":"VEC3","min":[15.5,23.3999996,-351],"max":[17.8999996,26.2000008,-348.5]},{"bufferView":1,"byteOffset":12960,"componentType":5126,"count":180,"type":"VEC3"},{"bufferView":2,"byteOffset":5760,"componentType":5123,"count":480,"type":"SCALAR"},{"bufferView":0,"byteOffset":15120,"componentType":5126,"count":182,"type":"VEC3","min":[-18,23.7000008,-351],"max":[-15.6000004,26.5,-348.5]},{"bufferView":1,"byteOffset":15120,"componentType":5126,"count":182,"type":"VEC3"},{"bufferView":2,"byteOffset":6720,"componentType":5123,"count":492,"type":"SCALAR"},{"bufferView":0,"byteOffset":17304,"componentType":5126,"count":180,"type":"VEC3","min":[-1.29999995,48.5999985,-351],"max":[1,51.4000015,-348.5]},{"bufferView":1,"byteOffset":17304,"componentType":5126,"count":180,"type":"VEC3"},{"bufferView":2,"byteOffset":7704,"componentType":5123,"count":480,"type":"SCALAR"},{"bufferView":0,"byteOffset":19464,"componentType":5126,"count":174,"type":"VEC3","min":[-18.6000004,31.7999992,-351],"max":[-16.2000008,34.4000015,-348.5]},{"bufferView":1,"byteOffset":19464,"componentType":5126,"count":174,"type":"VEC3"},{"bufferView":2,"byteOffset":8664,"componentType":5123,"count":444,"type":"SCALAR"},{"bufferView":0,"byteOffset":21552,"componentType":5126,"count":176,"type":"VEC3","min":[8.60000038,18.3999996,-351],"max":[11,21.1000004,-348.5]},{"bufferView":1,"byteOffset":21552,"componentType":5126,"count":176,"type":"VEC3"},{"bufferView":2,"byteOffset":9552,"componentType":5123,"count":456,"type":"SCALAR"},{"bufferView":0,"byteOffset":23664,"componentType":5126,"count":180,"type":"VEC3","min":[7.0999999,45.7999992,-351],"max":[9.5,48.5999985,-348.5]},{"bufferView":1,"byteOffset":23664,"componentType":5126,"count":180,"type":"VEC3"},{"bufferView":2,"byteOffset":10464,"componentType":5123,"count":480,"type":"SCALAR"}],"materials":[{"pbrMetallicRoughness":{"baseColorFactor":[0.411764711,0.615686297,0.886274517,1],"metallicFactor":0},"doubleSided":true}],"meshes":[{"primitives":[{"attributes":{"POSITION":0,"NORMAL":1},"mode":4,"indices":2,"material":0}]},{"primitives":[{"attributes":{"POSITION":3,"NORMAL":4},"mode":4,"indices":5,"material":0}]},{"primitives":[{"attributes":{"POSITION":6,"NORMAL":7},"mode":4,"indices":8,"material":0}]},{"primitives":[{"attributes":{"POSITION":9,"NORMAL":10},"mode":4,"indices":11,"material":0}]},{"primitives":[{"attributes":{"POSITION":12,"NORMAL":13},"mode":4,"indices":14,"material":0}]},{"primitives":[{"attributes":{"POSITION":15,"NORMAL":16},"mode":4,"indices":17,"material":0}]},{"primitives":[{"attributes":{"POSITION":18,"NORMAL":19},"mode":4,"indices":20,"material":0}]},{"primitives":[{"attributes":{"POSITION":21,"NORMAL":22},"mode":4,"indices":23,"material":0}]},{"primitives":[{"attributes":{"POSITION":24,"NORMAL":25},"mode":4,"indices":26,"material":0}]},{"primitives":[{"attributes":{"POSITION":27,"NORMAL":28},"mode":4,"indices":29,"material":0}]},{"primitives":[{"attributes":{"POSITION":30,"NORMAL":31},"mode":4,"indices":32,"material":0}]},{"primitives":[{"attributes":{"POSITION":33,"NORMAL":34},"mode":4,"indices":35,"material":0}]}],"nodes":[{"mesh":0},{"mesh":1},{"mesh":2},{"mesh":3},{"mesh":4},{"mesh":5},{"mesh":6},{"mesh":7},{"mesh":8},{"mesh":9},{"mesh":10},{"mesh":11},{"name":"Bolts","children":[0]},{"name":"Bolts","children":[1]},{"name":"Bolts","children":[2]},{"name":"Bolts","children":[3]},{"name":"Bolts","children":[4]},{"name":"Bolts","children":[5]},{"name":"Bolts","children":[6]},{"name":"Bolts","children":[7]},{"name":"Bolts","children":[8]},{"name":"Bolts","children":[9]},{"name":"Bolts","children":[10]},{"name":"Bolts","children":[11]}],"scenes":[{"nodes":[12,13,14,15,16,17,18,19,20,21,22,23]}]}