{"buffers":[{"uri":"Differential housing isolated.bin","byteLength":102960}],"asset":{"version":"2.0","generator":"gltfpack 0.16"},"bufferViews":[{"buffer":0,"byteOffset":0,"byteLength":37068,"byteStride":12,"target":34962},{"buffer":0,"byteOffset":37068,"byteLength":37068,"byteStride":12,"target":34962},{"buffer":0,"byteOffset":74136,"byteLength":28824,"target":34963}],"accessors":[{"bufferView":0,"byteOffset":0,"componentType":5126,"count":3089,"type":"VEC3","min":[-66.9000015,13.5,-337.799988],"max":[66.9000015,52.5,-299.200012]},{"bufferView":1,"byteOffset":0,"componentType":5126,"count":3089,"type":"VEC3"},{"bufferView":2,"byteOffset":0,"componentType":5123,"count":14412,"type":"SCALAR"}],"materials":[{"pbrMetallicRoughness":{"baseColorFactor":[0.886274517,0.886274517,0.517647088,1],"metallicFactor":0},"doubleSided":true}],"meshes":[{"primitives":[{"attributes":{"POSITION":0,"NORMAL":1},"mode":4,"indices":2,"material":0}]}],"nodes":[{"mesh":0},{"name":"Housing","children":[0]}],"scenes":[{"nodes":[1]}]}