{"buffers":[{"uri":"Differential cover expanded.bin","byteLength":140448}],"asset":{"version":"2.0","generator":"gltfpack 0.16"},"bufferViews":[{"buffer":0,"byteOffset":0,"byteLength":53616,"byteStride":12,"target":34962},{"buffer":0,"byteOffset":53616,"byteLength":53616,"byteStride":12,"target":34962},{"buffer":0,"byteOffset":107232,"byteLength":33216,"target":34963}],"accessors":[{"bufferView":0,"byteOffset":0,"componentType":5126,"count":2260,"type":"VEC3","min":[-19.1599998,13.9200001,-336.190002],"max":[19.1399994,52.0800018,-324.5]},{"bufferView":1,"byteOffset":0,"componentType":5126,"count":2260,"type":"VEC3"},{"bufferView":2,"byteOffset":0,"componentType":5123,"count":10560,"type":"SCALAR"},{"bufferView":0,"byteOffset":27120,"componentType":5126,"count":184,"type":"VEC3","min":[16.1499996,32.1899986,-338.589996],"max":[18.5799999,34.9500008,-336]},{"bufferView":1,"byteOffset":27120,"componentType":5126,"count":184,"type":"VEC3"},{"bufferView":2,"byteOffset":21120,"componentType":5123,"count":504,"type":"SCALAR"},{"bufferView":0,"byteOffset":29328,"componentType":5126,"count":184,"type":"VEC3","min":[-11.2700005,18.3500004,-338.589996],"max":[-8.85000038,21.1200008,-336]},{"bufferView":1,"byteOffset":29328,"componentType":5126,"count":184,"type":"VEC3"},{"bufferView":2,"byteOffset":22128,"componentType":5123,"count":504,"type":"SCALAR"},{"bufferView":0,"byteOffset":31536,"componentType":5126,"count":184,"type":"VEC3","min":[-11.0100002,45.2200012,-338.589996],"max":[-8.57999992,47.9900017,-336]},{"bufferView":1,"byteOffset":31536,"componentType":5126,"count":184,"type":"VEC3"},{"bufferView":2,"byteOffset":23136,"componentType":5123,"count":504,"type":"SCALAR"},{"bufferView":0,"byteOffset":33744,"componentType":5126,"count":184,"type":"VEC3","min":[-17.9799995,39.8600006,-338.589996],"max":[-15.5500002,42.6300011,-336]},{"bufferView":1,"byteOffset":33744,"componentType":5126,"count":184,"type":"VEC3"},{"bufferView":2,"byteOffset":24144,"componentType":5123,"count":504,"type":"SCALAR"},{"bufferView":0,"byteOffset":35952,"componentType":5126,"count":184,"type":"VEC3","min":[-1.13,14.79,-338.589996],"max":[1.27999997,17.5599995,-336]},{"bufferView":1,"byteOffset":35952,"componentType":5126,"count":184,"type":"VEC3"},{"bufferView":2,"byteOffset":25152,"componentType":5123,"count":504,"type":"SCALAR"},{"bufferView":0,"byteOffset":38160,"componentType":5126,"count":184,"type":"VEC3","min":[15.3699999,39.8600006,-338.589996],"max":[17.7999992,42.6300011,-336]},{"bufferView":1,"byteOffset":38160,"componentType":5126,"count":184,"type":"VEC3"},{"bufferView":2,"byteOffset":26160,"componentType":5123,"count":504,"type":"SCALAR"},{"bufferView":0,"byteOffset":40368,"componentType":5126,"count":184,"type":"VEC3","min":[15.5,23.3899994,-338.589996],"max":[17.9300003,26.1599998,-336]},{"bufferView":1,"byteOffset":40368,"componentType":5126,"count":184,"type":"VEC3"},{"bufferView":2,"byteOffset":27168,"componentType":5123,"count":504,"type":"SCALAR"},{"bufferView":0,"byteOffset":42576,"componentType":5126,"count":184,"type":"VEC3","min":[-18.0400009,23.6499996,-338.589996],"max":[-15.6199999,26.4200001,-336]},{"bufferView":1,"byteOffset":42576,"componentType":5126,"count":184,"type":"VEC3"},{"bufferView":2,"byteOffset":28176,"componentType":5123,"count":504,"type":"SCALAR"},{"bufferView":0,"byteOffset":44784,"componentType":5126,"count":184,"type":"VEC3","min":[-1.36000001,48.6899986,-338.589996],"max":[1.04999995,51.4599991,-336]},{"bufferView":1,"byteOffset":44784,"componentType":5126,"count":184,"type":"VEC3"},{"bufferView":2,"byteOffset":29184,"componentType":5123,"count":504,"type":"SCALAR"},{"bufferView":0,"byteOffset":46992,"componentType":5126,"count":184,"type":"VEC3","min":[-18.6599998,31.7299995,-338.589996],"max":[-16.2399998,34.4900017,-336]},{"bufferView":1,"byteOffset":46992,"componentType":5126,"count":184,"type":"VEC3"},{"bufferView":2,"byteOffset":30192,"componentType":5123,"count":504,"type":"SCALAR"},{"bufferView":0,"byteOffset":49200,"componentType":5126,"count":184,"type":"VEC3","min":[8.67000008,18.3199997,-338.589996],"max":[11.0900002,21.0900002,-336]},{"bufferView":1,"byteOffset":49200,"componentType":5126,"count":184,"type":"VEC3"},{"bufferView":2,"byteOffset":31200,"componentType":5123,"count":504,"type":"SCALAR"},{"bufferView":0,"byteOffset":51408,"componentType":5126,"count":184,"type":"VEC3","min":[7.0999999,45.8800011,-338.589996],"max":[9.52000046,48.6500015,-336]},{"bufferView":1,"byteOffset":51408,"componentType":5126,"count":184,"type":"VEC3"},{"bufferView":2,"byteOffset":32208,"componentType":5123,"count":504,"type":"SCALAR"}],"materials":[{"pbrMetallicRoughness":{"baseColorFactor":[0.80392158,0.952941179,0.686274529,1],"metallicFactor":0},"doubleSided":true},{"pbrMetallicRoughness":{"baseColorFactor":[0.411764711,0.615686297,0.886274517,1],"metallicFactor":0},"doubleSided":true}],"meshes":[{"primitives":[{"attributes":{"POSITION":0,"NORMAL":1},"mode":4,"indices":2,"material":0}]},{"primitives":[{"attributes":{"POSITION":3,"NORMAL":4},"mode":4,"indices":5,"material":1}]},{"primitives":[{"attributes":{"POSITION":6,"NORMAL":7},"mode":4,"indices":8,"material":1}]},{"primitives":[{"attributes":{"POSITION":9,"NORMAL":10},"mode":4,"indices":11,"material":1}]},{"primitives":[{"attributes":{"POSITION":12,"NORMAL":13},"mode":4,"indices":14,"material":1}]},{"primitives":[{"attributes":{"POSITION":15,"NORMAL":16},"mode":4,"indices":17,"material":1}]},{"primitives":[{"attributes":{"POSITION":18,"NORMAL":19},"mode":4,"indices":20,"material":1}]},{"primitives":[{"attributes":{"POSITION":21,"NORMAL":22},"mode":4,"indices":23,"material":1}]},{"primitives":[{"attributes":{"POSITION":24,"NORMAL":25},"mode":4,"indices":26,"material":1}]},{"primitives":[{"attributes":{"POSITION":27,"NORMAL":28},"mode":4,"indices":29,"material":1}]},{"primitives":[{"attributes":{"POSITION":30,"NORMAL":31},"mode":4,"indices":32,"material":1}]},{"primitives":[{"attributes":{"POSITION":33,"NORMAL":34},"mode":4,"indices":35,"material":1}]},{"primitives":[{"attributes":{"POSITION":36,"NORMAL":37},"mode":4,"indices":38,"material":1}]}],"nodes":[{"mesh":0},{"mesh":1},{"mesh":2},{"mesh":3},{"mesh":4},{"mesh":5},{"mesh":6},{"mesh":7},{"mesh":8},{"mesh":9},{"mesh":10},{"mesh":11},{"mesh":12},{"name":"Cover","children":[0]},{"name":"Bolts","children":[1]},{"name":"Bolts","children":[2]},{"name":"Bolts","children":[3]},{"name":"Bolts","children":[4]},{"name":"Bolts","children":[5]},{"name":"Bolts","children":[6]},{"name":"Bolts","children":[7]},{"name":"Bolts","children":[8]},{"name":"Bolts","children":[9]},{"name":"Bolts","children":[10]},{"name":"Bolts","children":[11]},{"name":"Bolts","children":[12]}],"scenes":[{"nodes":[13,14,15,16,17,18,19,20,21,22,23,24,25]}]}