{"buffers":[{"uri":"Drivetrain isolated.bin","byteLength":513780}],"asset":{"version":"2.0","generator":"gltfpack 0.16"},"bufferViews":[{"buffer":0,"byteOffset":0,"byteLength":193548,"byteStride":12,"target":34962},{"buffer":0,"byteOffset":193548,"byteLength":193548,"byteStride":12,"target":34962},{"buffer":0,"byteOffset":387096,"byteLength":126684,"target":34963}],"accessors":[{"bufferView":0,"byteOffset":0,"componentType":5126,"count":3089,"type":"VEC3","min":[-66.9000015,13.5,-337.799988],"max":[66.9000015,52.5,-299.200012]},{"bufferView":1,"byteOffset":0,"componentType":5126,"count":3089,"type":"VEC3"},{"bufferView":2,"byteOffset":0,"componentType":5123,"count":14412,"type":"SCALAR"},{"bufferView":0,"byteOffset":37068,"componentType":5126,"count":1721,"type":"VEC3","min":[-19.1000004,14,-349.100006],"max":[19.1000004,52,-337.5]},{"bufferView":1,"byteOffset":37068,"componentType":5126,"count":1721,"type":"VEC3"},{"bufferView":2,"byteOffset":28824,"componentType":5123,"count":8652,"type":"SCALAR"},{"bufferView":0,"byteOffset":57720,"componentType":5126,"count":180,"type":"VEC3","min":[16.1000004,32.2000008,-338.5],"max":[18.5,34.9000015,-336]},{"bufferView":1,"byteOffset":57720,"componentType":5126,"count":180,"type":"VEC3"},{"bufferView":2,"byteOffset":46128,"componentType":5123,"count":480,"type":"SCALAR"},{"bufferView":0,"byteOffset":59880,"componentType":5126,"count":184,"type":"VEC3","min":[-11.1999998,18.3999996,-338.5],"max":[-8.80000019,21.2000008,-336]},{"bufferView":1,"byteOffset":59880,"componentType":5126,"count":184,"type":"VEC3"},{"bufferView":2,"byteOffset":47088,"componentType":5123,"count":504,"type":"SCALAR"},{"bufferView":0,"byteOffset":62088,"componentType":5126,"count":182,"type":"VEC3","min":[-11,45.2000008,-338.5],"max":[-8.5,47.9000015,-336]},{"bufferView":1,"byteOffset":62088,"componentType":5126,"count":182,"type":"VEC3"},{"bufferView":2,"byteOffset":48096,"componentType":5123,"count":492,"type":"SCALAR"},{"bufferView":0,"byteOffset":64272,"componentType":5126,"count":180,"type":"VEC3","min":[-17.8999996,39.7999992,-338.5],"max":[-15.5,42.5999985,-336]},{"bufferView":1,"byteOffset":64272,"componentType":5126,"count":180,"type":"VEC3"},{"bufferView":2,"byteOffset":49080,"componentType":5123,"count":480,"type":"SCALAR"},{"bufferView":0,"byteOffset":66432,"componentType":5126,"count":178,"type":"VEC3","min":[-1.10000002,14.8000002,-338.5],"max":[1.20000005,17.6000004,-336]},{"bufferView":1,"byteOffset":66432,"componentType":5126,"count":178,"type":"VEC3"},{"bufferView":2,"byteOffset":50040,"componentType":5123,"count":468,"type":"SCALAR"},{"bufferView":0,"byteOffset":68568,"componentType":5126,"count":176,"type":"VEC3","min":[15.3000002,39.7999992,-338.5],"max":[17.7999992,42.5999985,-336]},{"bufferView":1,"byteOffset":68568,"componentType":5126,"count":176,"type":"VEC3"},{"bufferView":2,"byteOffset":50976,"componentType":5123,"count":456,"type":"SCALAR"},{"bufferView":0,"byteOffset":70680,"componentType":5126,"count":180,"type":"VEC3","min":[15.5,23.3999996,-338.5],"max":[17.8999996,26.2000008,-336]},{"bufferView":1,"byteOffset":70680,"componentType":5126,"count":180,"type":"VEC3"},{"bufferView":2,"byteOffset":51888,"componentType":5123,"count":480,"type":"SCALAR"},{"bufferView":0,"byteOffset":72840,"componentType":5126,"count":182,"type":"VEC3","min":[-18,23.7000008,-338.5],"max":[-15.6000004,26.5,-336]},{"bufferView":1,"byteOffset":72840,"componentType":5126,"count":182,"type":"VEC3"},{"bufferView":2,"byteOffset":52848,"componentType":5123,"count":492,"type":"SCALAR"},{"bufferView":0,"byteOffset":75024,"componentType":5126,"count":180,"type":"VEC3","min":[-1.29999995,48.5999985,-338.5],"max":[1,51.4000015,-336]},{"bufferView":1,"byteOffset":75024,"componentType":5126,"count":180,"type":"VEC3"},{"bufferView":2,"byteOffset":53832,"componentType":5123,"count":480,"type":"SCALAR"},{"bufferView":0,"byteOffset":77184,"componentType":5126,"count":174,"type":"VEC3","min":[-18.6000004,31.7999992,-338.5],"max":[-16.2000008,34.4000015,-336]},{"bufferView":1,"byteOffset":77184,"componentType":5126,"count":174,"type":"VEC3"},{"bufferView":2,"byteOffset":54792,"componentType":5123,"count":444,"type":"SCALAR"},{"bufferView":0,"byteOffset":79272,"componentType":5126,"count":176,"type":"VEC3","min":[8.60000038,18.3999996,-338.5],"max":[11,21.1000004,-336]},{"bufferView":1,"byteOffset":79272,"componentType":5126,"count":176,"type":"VEC3"},{"bufferView":2,"byteOffset":55680,"componentType":5123,"count":456,"type":"SCALAR"},{"bufferView":0,"byteOffset":81384,"componentType":5126,"count":180,"type":"VEC3","min":[7.0999999,45.7999992,-338.5],"max":[9.5,48.5999985,-336]},{"bufferView":1,"byteOffset":81384,"componentType":5126,"count":180,"type":"VEC3"},{"bufferView":2,"byteOffset":56592,"componentType":5123,"count":480,"type":"SCALAR"},{"bufferView":0,"byteOffset":83544,"componentType":5126,"count":3924,"type":"VEC3","min":[-4.19999981,28.7999992,-301.200012],"max":[4.19999981,37.2000008,-299.200012]},{"bufferView":1,"byteOffset":83544,"componentType":5126,"count":3924,"type":"VEC3"},{"bufferView":2,"byteOffset":57552,"componentType":5123,"count":16992,"type":"SCALAR"},{"bufferView":0,"byteOffset":130632,"componentType":5126,"count":1833,"type":"VEC3","min":[-5.9000001,27.1000004,-329.100006],"max":[5.9000001,38.9000015,-269.399994]},{"bufferView":1,"byteOffset":130632,"componentType":5126,"count":1833,"type":"VEC3"},{"bufferView":2,"byteOffset":91536,"componentType":5123,"count":7452,"type":"SCALAR"},{"bufferView":0,"byteOffset":152628,"componentType":5126,"count":1142,"type":"VEC3","min":[-5.5,29.5,-275.999756],"max":[5.5,36.5,-126.399765]},{"bufferView":1,"byteOffset":152628,"componentType":5126,"count":1142,"type":"VEC3"},{"bufferView":2,"byteOffset":106440,"componentType":5123,"count":4038,"type":"SCALAR"},{"bufferView":0,"byteOffset":166332,"componentType":5126,"count":936,"type":"VEC3","min":[-5.4000001,27.6000004,-274.299988],"max":[5.4000001,38.4000015,-271.200012]},{"bufferView":1,"byteOffset":166332,"componentType":5126,"count":936,"type":"VEC3"},{"bufferView":2,"byteOffset":114516,"componentType":5123,"count":2796,"type":"SCALAR"},{"bufferView":0,"byteOffset":177564,"componentType":5126,"count":666,"type":"VEC3","min":[-69.9000015,24.5,-340],"max":[-6.9000001,41.5,-323]},{"bufferView":1,"byteOffset":177564,"componentType":5126,"count":666,"type":"VEC3"},{"bufferView":2,"byteOffset":120108,"componentType":5123,"count":1644,"type":"SCALAR"},{"bufferView":0,"byteOffset":185556,"componentType":5126,"count":666,"type":"VEC3","min":[6.9000001,24.5,-340],"max":[69.9000015,41.5,-323]},{"bufferView":1,"byteOffset":185556,"componentType":5126,"count":666,"type":"VEC3"},{"bufferView":2,"byteOffset":123396,"componentType":5123,"count":1644,"type":"SCALAR"}],"materials":[{"pbrMetallicRoughness":{"baseColorFactor":[0.886274517,0.886274517,0.517647088,1],"metallicFactor":0},"doubleSided":true},{"pbrMetallicRoughness":{"baseColorFactor":[0.80392158,0.952941179,0.686274529,1],"metallicFactor":0},"doubleSided":true},{"pbrMetallicRoughness":{"baseColorFactor":[0.411764711,0.615686297,0.886274517,1],"metallicFactor":0},"doubleSided":true},{"pbrMetallicRoughness":{"baseColorFactor":[0.941176474,0.501960814,0.501960814,1],"metallicFactor":0},"doubleSided":true},{"pbrMetallicRoughness":{"baseColorFactor":[0.333333343,0.564705908,0.427450985,1],"metallicFactor":0},"doubleSided":true},{"pbrMetallicRoughness":{"baseColorFactor":[0.376470596,0.600000024,0.580392182,1],"metallicFactor":0},"doubleSided":true},{"pbrMetallicRoughness":{"baseColorFactor":[0.392156869,0.796078444,0.43921569,1],"metallicFactor":0},"doubleSided":true},{"pbrMetallicRoughness":{"baseColorFactor":[0.494117647,0.250980407,0.505882382,1],"metallicFactor":0},"doubleSided":true}],"meshes":[{"primitives":[{"attributes":{"POSITION":0,"NORMAL":1},"mode":4,"indices":2,"material":0}]},{"primitives":[{"attributes":{"POSITION":3,"NORMAL":4},"mode":4,"indices":5,"material":1}]},{"primitives":[{"attributes":{"POSITION":6,"NORMAL":7},"mode":4,"indices":8,"material":2}]},{"primitives":[{"attributes":{"POSITION":9,"NORMAL":10},"mode":4,"indices":11,"material":2}]},{"primitives":[{"attributes":{"POSITION":12,"NORMAL":13},"mode":4,"indices":14,"material":2}]},{"primitives":[{"attributes":{"POSITION":15,"NORMAL":16},"mode":4,"indices":17,"material":2}]},{"primitives":[{"attributes":{"POSITION":18,"NORMAL":19},"mode":4,"indices":20,"material":2}]},{"primitives":[{"attributes":{"POSITION":21,"NORMAL":22},"mode":4,"indices":23,"material":2}]},{"primitives":[{"attributes":{"POSITION":24,"NORMAL":25},"mode":4,"indices":26,"material":2}]},{"primitives":[{"attributes":{"POSITION":27,"NORMAL":28},"mode":4,"indices":29,"material":2}]},{"primitives":[{"attributes":{"POSITION":30,"NORMAL":31},"mode":4,"indices":32,"material":2}]},{"primitives":[{"attributes":{"POSITION":33,"NORMAL":34},"mode":4,"indices":35,"material":2}]},{"primitives":[{"attributes":{"POSITION":36,"NORMAL":37},"mode":4,"indices":38,"material":2}]},{"primitives":[{"attributes":{"POSITION":39,"NORMAL":40},"mode":4,"indices":41,"material":2}]},{"primitives":[{"attributes":{"POSITION":42,"NORMAL":43},"mode":4,"indices":44,"material":3}]},{"primitives":[{"attributes":{"POSITION":45,"NORMAL":46},"mode":4,"indices":47,"material":4}]},{"primitives":[{"attributes":{"POSITION":48,"NORMAL":49},"mode":4,"indices":50,"material":5}]},{"primitives":[{"attributes":{"POSITION":51,"NORMAL":52},"mode":4,"indices":53,"material":6}]},{"primitives":[{"attributes":{"POSITION":54,"NORMAL":55},"mode":4,"indices":56,"material":7}]},{"primitives":[{"attributes":{"POSITION":57,"NORMAL":58},"mode":4,"indices":59,"material":7}]}],"nodes":[{"mesh":0},{"mesh":1},{"mesh":2},{"mesh":3},{"mesh":4},{"mesh":5},{"mesh":6},{"mesh":7},{"mesh":8},{"mesh":9},{"mesh":10},{"mesh":11},{"mesh":12},{"mesh":13},{"mesh":14},{"mesh":15},{"mesh":16},{"mesh":17},{"mesh":18},{"mesh":19},{"name":"Housing","children":[0]},{"name":"Cover","children":[1]},{"name":"Bolts","children":[2]},{"name":"Bolts","children":[3]},{"name":"Bolts","children":[4]},{"name":"Bolts","children":[5]},{"name":"Bolts","children":[6]},{"name":"Bolts","children":[7]},{"name":"Bolts","children":[8]},{"name":"Bolts","children":[9]},{"name":"Bolts","children":[10]},{"name":"Bolts","children":[11]},{"name":"Bolts","children":[12]},{"name":"Bolts","children":[13]},{"name":"Front bearing","children":[14]},{"name":"Shaft A","children":[15]},{"name":"Shaft B","children":[16]},{"name":"Spider","children":[17]},{"name":"Axels","children":[18]},{"name":"Axels","children":[19]}],"scenes":[{"nodes":[20,21,22,23,24,25,26,27,28,29,30,31,32,33,34,35,36,37,38,39]}]}