{"buffers":[{"uri":"Drivetrain expanded.bin","byteLength":529908}],"asset":{"version":"2.0","generator":"gltfpack 0.16"},"bufferViews":[{"buffer":0,"byteOffset":0,"byteLength":199884,"byteStride":12,"target":34962},{"buffer":0,"byteOffset":199884,"byteLength":199884,"byteStride":12,"target":34962},{"buffer":0,"byteOffset":399768,"byteLength":130140,"target":34963}],"accessors":[{"bufferView":0,"byteOffset":0,"componentType":5126,"count":3089,"type":"VEC3","min":[-66.9000015,13.5,-337.799988],"max":[66.9000015,52.5,-299.200012]},{"bufferView":1,"byteOffset":0,"componentType":5126,"count":3089,"type":"VEC3"},{"bufferView":2,"byteOffset":0,"componentType":5123,"count":14412,"type":"SCALAR"},{"bufferView":0,"byteOffset":37068,"componentType":5126,"count":2249,"type":"VEC3","min":[-19.1000004,14,-369.100006],"max":[19.1000004,52,-357.5]},{"bufferView":1,"byteOffset":37068,"componentType":5126,"count":2249,"type":"VEC3"},{"bufferView":2,"byteOffset":28824,"componentType":5123,"count":10380,"type":"SCALAR"},{"bufferView":0,"byteOffset":64056,"componentType":5126,"count":176,"type":"VEC3","min":[8.60000038,18.3999996,-358.5],"max":[11,21.1000004,-356]},{"bufferView":1,"byteOffset":64056,"componentType":5126,"count":176,"type":"VEC3"},{"bufferView":2,"byteOffset":49584,"componentType":5123,"count":456,"type":"SCALAR"},{"bufferView":0,"byteOffset":66168,"componentType":5126,"count":174,"type":"VEC3","min":[-18.6000004,31.7999992,-358.5],"max":[-16.2000008,34.4000015,-356]},{"bufferView":1,"byteOffset":66168,"componentType":5126,"count":174,"type":"VEC3"},{"bufferView":2,"byteOffset":50496,"componentType":5123,"count":444,"type":"SCALAR"},{"bufferView":0,"byteOffset":68256,"componentType":5126,"count":182,"type":"VEC3","min":[-18,23.7000008,-358.5],"max":[-15.6000004,26.5,-356]},{"bufferView":1,"byteOffset":68256,"componentType":5126,"count":182,"type":"VEC3"},{"bufferView":2,"byteOffset":51384,"componentType":5123,"count":492,"type":"SCALAR"},{"bufferView":0,"byteOffset":70440,"componentType":5126,"count":180,"type":"VEC3","min":[15.5,23.3999996,-358.5],"max":[17.8999996,26.2000008,-356]},{"bufferView":1,"byteOffset":70440,"componentType":5126,"count":180,"type":"VEC3"},{"bufferView":2,"byteOffset":52368,"componentType":5123,"count":480,"type":"SCALAR"},{"bufferView":0,"byteOffset":72600,"componentType":5126,"count":176,"type":"VEC3","min":[15.3000002,39.7999992,-358.5],"max":[17.7999992,42.5999985,-356]},{"bufferView":1,"byteOffset":72600,"componentType":5126,"count":176,"type":"VEC3"},{"bufferView":2,"byteOffset":53328,"componentType":5123,"count":456,"type":"SCALAR"},{"bufferView":0,"byteOffset":74712,"componentType":5126,"count":178,"type":"VEC3","min":[-1.10000002,14.8000002,-358.5],"max":[1.20000005,17.6000004,-356]},{"bufferView":1,"byteOffset":74712,"componentType":5126,"count":178,"type":"VEC3"},{"bufferView":2,"byteOffset":54240,"componentType":5123,"count":468,"type":"SCALAR"},{"bufferView":0,"byteOffset":76848,"componentType":5126,"count":180,"type":"VEC3","min":[-17.8999996,39.7999992,-358.5],"max":[-15.5,42.5999985,-356]},{"bufferView":1,"byteOffset":76848,"componentType":5126,"count":180,"type":"VEC3"},{"bufferView":2,"byteOffset":55176,"componentType":5123,"count":480,"type":"SCALAR"},{"bufferView":0,"byteOffset":79008,"componentType":5126,"count":182,"type":"VEC3","min":[-11,45.2000008,-358.5],"max":[-8.5,47.9000015,-356]},{"bufferView":1,"byteOffset":79008,"componentType":5126,"count":182,"type":"VEC3"},{"bufferView":2,"byteOffset":56136,"componentType":5123,"count":492,"type":"SCALAR"},{"bufferView":0,"byteOffset":81192,"componentType":5126,"count":180,"type":"VEC3","min":[16.1000004,32.2000008,-358.5],"max":[18.5,34.9000015,-356]},{"bufferView":1,"byteOffset":81192,"componentType":5126,"count":180,"type":"VEC3"},{"bufferView":2,"byteOffset":57120,"componentType":5123,"count":480,"type":"SCALAR"},{"bufferView":0,"byteOffset":83352,"componentType":5126,"count":184,"type":"VEC3","min":[-11.1999998,18.3999996,-358.5],"max":[-8.80000019,21.2000008,-356]},{"bufferView":1,"byteOffset":83352,"componentType":5126,"count":184,"type":"VEC3"},{"bufferView":2,"byteOffset":58080,"componentType":5123,"count":504,"type":"SCALAR"},{"bufferView":0,"byteOffset":85560,"componentType":5126,"count":180,"type":"VEC3","min":[7.0999999,45.7999992,-358.5],"max":[9.5,48.5999985,-356]},{"bufferView":1,"byteOffset":85560,"componentType":5126,"count":180,"type":"VEC3"},{"bufferView":2,"byteOffset":59088,"componentType":5123,"count":480,"type":"SCALAR"},{"bufferView":0,"byteOffset":87720,"componentType":5126,"count":180,"type":"VEC3","min":[-1.29999995,48.5999985,-358.5],"max":[1,51.4000015,-356]},{"bufferView":1,"byteOffset":87720,"componentType":5126,"count":180,"type":"VEC3"},{"bufferView":2,"byteOffset":60048,"componentType":5123,"count":480,"type":"SCALAR"},{"bufferView":0,"byteOffset":89880,"componentType":5126,"count":3924,"type":"VEC3","min":[-4.19999981,28.7999992,-263.700012],"max":[4.19999981,37.2000008,-261.700012]},{"bufferView":1,"byteOffset":89880,"componentType":5126,"count":3924,"type":"VEC3"},{"bufferView":2,"byteOffset":61008,"componentType":5123,"count":16992,"type":"SCALAR"},{"bufferView":0,"byteOffset":136968,"componentType":5126,"count":1833,"type":"VEC3","min":[-5.9000001,27.1000004,-291.600006],"max":[5.9000001,38.9000015,-231.899994]},{"bufferView":1,"byteOffset":136968,"componentType":5126,"count":1833,"type":"VEC3"},{"bufferView":2,"byteOffset":94992,"componentType":5123,"count":7452,"type":"SCALAR"},{"bufferView":0,"byteOffset":158964,"componentType":5126,"count":1142,"type":"VEC3","min":[-5.5,29.5,-238.499756],"max":[5.5,36.5,-88.899765]},{"bufferView":1,"byteOffset":158964,"componentType":5126,"count":1142,"type":"VEC3"},{"bufferView":2,"byteOffset":109896,"componentType":5123,"count":4038,"type":"SCALAR"},{"bufferView":0,"byteOffset":172668,"componentType":5126,"count":936,"type":"VEC3","min":[-5.4000001,27.6000004,-236.800003],"max":[5.4000001,38.4000015,-233.699997]},{"bufferView":1,"byteOffset":172668,"componentType":5126,"count":936,"type":"VEC3"},{"bufferView":2,"byteOffset":117972,"componentType":5123,"count":2796,"type":"SCALAR"},{"bufferView":0,"byteOffset":183900,"componentType":5126,"count":666,"type":"VEC3","min":[-139.899994,24.5,-340],"max":[-76.9000015,41.5,-323]},{"bufferView":1,"byteOffset":183900,"componentType":5126,"count":666,"type":"VEC3"},{"bufferView":2,"byteOffset":123564,"componentType":5123,"count":1644,"type":"SCALAR"},{"bufferView":0,"byteOffset":191892,"componentType":5126,"count":666,"type":"VEC3","min":[76.9000015,24.5,-340],"max":[139.899994,41.5,-323]},{"bufferView":1,"byteOffset":191892,"componentType":5126,"count":666,"type":"VEC3"},{"bufferView":2,"byteOffset":126852,"componentType":5123,"count":1644,"type":"SCALAR"}],"materials":[{"pbrMetallicRoughness":{"baseColorFactor":[0.886274517,0.886274517,0.517647088,1],"metallicFactor":0},"doubleSided":true},{"pbrMetallicRoughness":{"baseColorFactor":[0.80392158,0.952941179,0.686274529,1],"metallicFactor":0},"doubleSided":true},{"pbrMetallicRoughness":{"baseColorFactor":[0.411764711,0.615686297,0.886274517,1],"metallicFactor":0},"doubleSided":true},{"pbrMetallicRoughness":{"baseColorFactor":[0.941176474,0.501960814,0.501960814,1],"metallicFactor":0},"doubleSided":true},{"pbrMetallicRoughness":{"baseColorFactor":[0.333333343,0.564705908,0.427450985,1],"metallicFactor":0},"doubleSided":true},{"pbrMetallicRoughness":{"baseColorFactor":[0.376470596,0.600000024,0.580392182,1],"metallicFactor":0},"doubleSided":true},{"pbrMetallicRoughness":{"baseColorFactor":[0.392156869,0.796078444,0.43921569,1],"metallicFactor":0},"doubleSided":true},{"pbrMetallicRoughness":{"baseColorFactor":[0.494117647,0.250980407,0.505882382,1],"metallicFactor":0},"doubleSided":true}],"meshes":[{"primitives":[{"attributes":{"POSITION":0,"NORMAL":1},"mode":4,"indices":2,"material":0}]},{"primitives":[{"attributes":{"POSITION":3,"NORMAL":4},"mode":4,"indices":5,"material":1}]},{"primitives":[{"attributes":{"POSITION":6,"NORMAL":7},"mode":4,"indices":8,"material":2}]},{"primitives":[{"attributes":{"POSITION":9,"NORMAL":10},"mode":4,"indices":11,"material":2}]},{"primitives":[{"attributes":{"POSITION":12,"NORMAL":13},"mode":4,"indices":14,"material":2}]},{"primitives":[{"attributes":{"POSITION":15,"NORMAL":16},"mode":4,"indices":17,"material":2}]},{"primitives":[{"attributes":{"POSITION":18,"NORMAL":19},"mode":4,"indices":20,"material":2}]},{"primitives":[{"attributes":{"POSITION":21,"NORMAL":22},"mode":4,"indices":23,"material":2}]},{"primitives":[{"attributes":{"POSITION":24,"NORMAL":25},"mode":4,"indices":26,"material":2}]},{"primitives":[{"attributes":{"POSITION":27,"NORMAL":28},"mode":4,"indices":29,"material":2}]},{"primitives":[{"attributes":{"POSITION":30,"NORMAL":31},"mode":4,"indices":32,"material":2}]},{"primitives":[{"attributes":{"POSITION":33,"NORMAL":34},"mode":4,"indices":35,"material":2}]},{"primitives":[{"attributes":{"POSITION":36,"NORMAL":37},"mode":4,"indices":38,"material":2}]},{"primitives":[{"attributes":{"POSITION":39,"NORMAL":40},"mode":4,"indices":41,"material":2}]},{"primitives":[{"attributes":{"POSITION":42,"NORMAL":43},"mode":4,"indices":44,"material":3}]},{"primitives":[{"attributes":{"POSITION":45,"NORMAL":46},"mode":4,"indices":47,"material":4}]},{"primitives":[{"attributes":{"POSITION":48,"NORMAL":49},"mode":4,"indices":50,"material":5}]},{"primitives":[{"attributes":{"POSITION":51,"NORMAL":52},"mode":4,"indices":53,"material":6}]},{"primitives":[{"attributes":{"POSITION":54,"NORMAL":55},"mode":4,"indices":56,"material":7}]},{"primitives":[{"attributes":{"POSITION":57,"NORMAL":58},"mode":4,"indices":59,"material":7}]}],"nodes":[{"mesh":0},{"mesh":1},{"mesh":2},{"mesh":3},{"mesh":4},{"mesh":5},{"mesh":6},{"mesh":7},{"mesh":8},{"mesh":9},{"mesh":10},{"mesh":11},{"mesh":12},{"mesh":13},{"mesh":14},{"mesh":15},{"mesh":16},{"mesh":17},{"mesh":18},{"mesh":19},{"name":"Housing","children":[0]},{"name":"Cover","children":[1]},{"name":"Bolts","children":[2]},{"name":"Bolts","children":[3]},{"name":"Bolts","children":[4]},{"name":"Bolts","children":[5]},{"name":"Bolts","children":[6]},{"name":"Bolts","children":[7]},{"name":"Bolts","children":[8]},{"name":"Bolts","children":[9]},{"name":"Bolts","children":[10]},{"name":"Bolts","children":[11]},{"name":"Bolts","children":[12]},{"name":"Bolts","children":[13]},{"name":"Front bearing","children":[14]},{"name":"Shaft A","children":[15]},{"name":"Shaft B","children":[16]},{"name":"Spider","children":[17]},{"name":"Axels","children":[18]},{"name":"Axels","children":[19]}],"scenes":[{"nodes":[20,21,22,23,24,25,26,27,28,29,30,31,32,33,34,35,36,37,38,39]}]}