{"buffers":[{"uri":"Driveshaft isolated.bin","byteLength":250596}],"asset":{"version":"2.0","generator":"gltfpack 0.16"},"bufferViews":[{"buffer":0,"byteOffset":0,"byteLength":94020,"byteStride":12,"target":34962},{"buffer":0,"byteOffset":94020,"byteLength":94020,"byteStride":12,"target":34962},{"buffer":0,"byteOffset":188040,"byteLength":62556,"target":34963}],"accessors":[{"bufferView":0,"byteOffset":0,"componentType":5126,"count":3924,"type":"VEC3","min":[-4.19999981,28.7999992,-263.700012],"max":[4.19999981,37.2000008,-261.700012]},{"bufferView":1,"byteOffset":0,"componentType":5126,"count":3924,"type":"VEC3"},{"bufferView":2,"byteOffset":0,"componentType":5123,"count":16992,"type":"SCALAR"},{"bufferView":0,"byteOffset":47088,"componentType":5126,"count":1833,"type":"VEC3","min":[-5.9000001,27.1000004,-291.600006],"max":[5.9000001,38.9000015,-231.899994]},{"bufferView":1,"byteOffset":47088,"componentType":5126,"count":1833,"type":"VEC3"},{"bufferView":2,"byteOffset":33984,"componentType":5123,"count":7452,"type":"SCALAR"},{"bufferView":0,"byteOffset":69084,"componentType":5126,"count":1142,"type":"VEC3","min":[-5.5,29.5,-238.499756],"max":[5.5,36.5,-88.899765]},{"bufferView":1,"byteOffset":69084,"componentType":5126,"count":1142,"type":"VEC3"},{"bufferView":2,"byteOffset":48888,"componentType":5123,"count":4038,"type":"SCALAR"},{"bufferView":0,"byteOffset":82788,"componentType":5126,"count":936,"type":"VEC3","min":[-5.4000001,27.6000004,-236.800003],"max":[5.4000001,38.4000015,-233.699997]},{"bufferView":1,"byteOffset":82788,"componentType":5126,"count":936,"type":"VEC3"},{"bufferView":2,"byteOffset":56964,"componentType":5123,"count":2796,"type":"SCALAR"}],"materials":[{"pbrMetallicRoughness":{"baseColorFactor":[0.941176474,0.501960814,0.501960814,1],"metallicFactor":0},"doubleSided":true},{"pbrMetallicRoughness":{"baseColorFactor":[0.333333343,0.564705908,0.427450985,1],"metallicFactor":0},"doubleSided":true},{"pbrMetallicRoughness":{"baseColorFactor":[0.376470596,0.600000024,0.580392182,1],"metallicFactor":0},"doubleSided":true},{"pbrMetallicRoughness":{"baseColorFactor":[0.392156869,0.796078444,0.43921569,1],"metallicFactor":0},"doubleSided":true}],"meshes":[{"primitives":[{"attributes":{"POSITION":0,"NORMAL":1},"mode":4,"indices":2,"material":0}]},{"primitives":[{"attributes":{"POSITION":3,"NORMAL":4},"mode":4,"indices":5,"material":1}]},{"primitives":[{"attributes":{"POSITION":6,"NORMAL":7},"mode":4,"indices":8,"material":2}]},{"primitives":[{"attributes":{"POSITION":9,"NORMAL":10},"mode":4,"indices":11,"material":3}]}],"nodes":[{"mesh":0},{"mesh":1},{"mesh":2},{"mesh":3},{"name":"Front bearing","children":[0]},{"name":"Shaft A","children":[1]},{"name":"Shaft B","children":[2]},{"name":"Spider","children":[3]}],"scenes":[{"nodes":[4,5,6,7]}]}