{"buffers":[{"uri":"Front bearing isolated.bin","byteLength":128160}],"asset":{"version":"2.0","generator":"gltfpack 0.16"},"bufferViews":[{"buffer":0,"byteOffset":0,"byteLength":47088,"byteStride":12,"target":34962},{"buffer":0,"byteOffset":47088,"byteLength":47088,"byteStride":12,"target":34962},{"buffer":0,"byteOffset":94176,"byteLength":33984,"target":34963}],"accessors":[{"bufferView":0,"byteOffset":0,"componentType":5126,"count":3924,"type":"VEC3","min":[-4.19999981,28.7999992,-303.700012],"max":[4.19999981,37.2000008,-301.700012]},{"bufferView":1,"byteOffset":0,"componentType":5126,"count":3924,"type":"VEC3"},{"bufferView":2,"byteOffset":0,"componentType":5123,"count":16992,"type":"SCALAR"}],"materials":[{"pbrMetallicRoughness":{"baseColorFactor":[0.941176474,0.501960814,0.501960814,1],"metallicFactor":0},"doubleSided":true}],"meshes":[{"primitives":[{"attributes":{"POSITION":0,"NORMAL":1},"mode":4,"indices":2,"material":0}]}],"nodes":[{"mesh":0},{"name":"Front bearing","children":[0]}],"scenes":[{"nodes":[1]}]}