{"buffers":[{"uri":"Front driveshaft isolated.bin","byteLength":35484}],"asset":{"version":"2.0","generator":"gltfpack 0.16"},"bufferViews":[{"buffer":0,"byteOffset":0,"byteLength":13704,"byteStride":12,"target":34962},{"buffer":0,"byteOffset":13704,"byteLength":13704,"byteStride":12,"target":34962},{"buffer":0,"byteOffset":27408,"byteLength":8076,"target":34963}],"accessors":[{"bufferView":0,"byteOffset":0,"componentType":5126,"count":1142,"type":"VEC3","min":[-5.5,29.5,-223.499756],"max":[5.5,36.5,-73.899765]},{"bufferView":1,"byteOffset":0,"componentType":5126,"count":1142,"type":"VEC3"},{"bufferView":2,"byteOffset":0,"componentType":5123,"count":4038,"type":"SCALAR"}],"materials":[{"pbrMetallicRoughness":{"baseColorFactor":[0.376470596,0.600000024,0.580392182,1],"metallicFactor":0},"doubleSided":true}],"meshes":[{"primitives":[{"attributes":{"POSITION":0,"NORMAL":1},"mode":4,"indices":2,"material":0}]}],"nodes":[{"mesh":0},{"name":"Shaft B","children":[0]}],"scenes":[{"nodes":[1]}]}