{"buffers":[{"uri":"Mirrors isolated.bin","byteLength":77652}],"asset":{"version":"2.0","generator":"gltfpack 0.16"},"bufferViews":[{"buffer":0,"byteOffset":0,"byteLength":26628,"byteStride":12,"target":34962},{"buffer":0,"byteOffset":26628,"byteLength":26628,"byteStride":12,"target":34962},{"buffer":0,"byteOffset":53256,"byteLength":24396,"target":34963}],"accessors":[{"bufferView":0,"byteOffset":0,"componentType":5126,"count":417,"type":"VEC3","min":[66.408226,89.027565,-127.538078],"max":[71.408226,92.727562,-121.138077]},{"bufferView":1,"byteOffset":0,"componentType":5126,"count":417,"type":"VEC3"},{"bufferView":2,"byteOffset":0,"componentType":5123,"count":2334,"type":"SCALAR"},{"bufferView":0,"byteOffset":5004,"componentType":5126,"count":488,"type":"VEC3","min":[63.8082237,89.527565,-129.93808],"max":[74.0082245,99.9275665,-127.738075]},{"bufferView":1,"byteOffset":5004,"componentType":5126,"count":488,"type":"VEC3"},{"bufferView":2,"byteOffset":4668,"componentType":5123,"count":2784,"type":"SCALAR"},{"bufferView":0,"byteOffset":10860,"componentType":5126,"count":32,"type":"VEC3","min":[64.108223,89.8275604,-129.838074],"max":[73.7082214,99.6275635,-129.838074]},{"bufferView":1,"byteOffset":10860,"componentType":5126,"count":32,"type":"VEC3"},{"bufferView":2,"byteOffset":10236,"componentType":5123,"count":90,"type":"SCALAR"},{"bufferView":0,"byteOffset":11244,"componentType":5126,"count":417,"type":"VEC3","min":[38.5917778,89.027565,-127.538078],"max":[43.5917778,92.727562,-121.138077]},{"bufferView":1,"byteOffset":11244,"componentType":5126,"count":417,"type":"VEC3"},{"bufferView":2,"byteOffset":10416,"componentType":5123,"count":2334,"type":"SCALAR"},{"bufferView":0,"byteOffset":16248,"componentType":5126,"count":833,"type":"VEC3","min":[35.9917793,89.527565,-129.93808],"max":[46.1917763,99.9275665,-119.238075]},{"bufferView":1,"byteOffset":16248,"componentType":5126,"count":833,"type":"VEC3"},{"bufferView":2,"byteOffset":15084,"componentType":5123,"count":4566,"type":"SCALAR"},{"bufferView":0,"byteOffset":26244,"componentType":5126,"count":32,"type":"VEC3","min":[36.2917786,89.8275604,-129.838074],"max":[45.891777,99.6275635,-129.838074]},{"bufferView":1,"byteOffset":26244,"componentType":5126,"count":32,"type":"VEC3"},{"bufferView":2,"byteOffset":24216,"componentType":5123,"count":90,"type":"SCALAR"}],"materials":[{"pbrMetallicRoughness":{"baseColorFactor":[0.960784316,0.960784316,0.964705884,1],"metallicFactor":0},"doubleSided":true},{"pbrMetallicRoughness":{"baseColorFactor":[0.450980395,0.839215696,0.933333337,0.196078435],"metallicFactor":0},"alphaMode":"BLEND","doubleSided":true}],"meshes":[{"primitives":[{"attributes":{"POSITION":0,"NORMAL":1},"mode":4,"indices":2,"material":0}]},{"primitives":[{"attributes":{"POSITION":3,"NORMAL":4},"mode":4,"indices":5,"material":0}]},{"primitives":[{"attributes":{"POSITION":6,"NORMAL":7},"mode":4,"indices":8,"material":1}]},{"primitives":[{"attributes":{"POSITION":9,"NORMAL":10},"mode":4,"indices":11,"material":0}]},{"primitives":[{"attributes":{"POSITION":12,"NORMAL":13},"mode":4,"indices":14,"material":0}]},{"primitives":[{"attributes":{"POSITION":15,"NORMAL":16},"mode":4,"indices":17,"material":1}]}],"nodes":[{"mesh":0},{"mesh":1},{"mesh":2},{"mesh":3},{"mesh":4},{"mesh":5},{"name":"mirror left v6","children":[0]},{"name":"mirror left v6","children":[1]},{"name":"mirror left v6","children":[2]},{"name":"mirror right v6(Mirror)","children":[3]},{"name":"mirror right v6(Mirror)","children":[4]},{"name":"mirror right v6(Mirror)","children":[5]}],"scenes":[{"nodes":[6,7,8,9,10,11]}]}