{"buffers":[{"uri":"Mirror left isolated.bin","byteLength":32904}],"asset":{"version":"2.0","generator":"gltfpack 0.16"},"bufferViews":[{"buffer":0,"byteOffset":0,"byteLength":11244,"byteStride":12,"target":34962},{"buffer":0,"byteOffset":11244,"byteLength":11244,"byteStride":12,"target":34962},{"buffer":0,"byteOffset":22488,"byteLength":10416,"target":34963}],"accessors":[{"bufferView":0,"byteOffset":0,"componentType":5126,"count":417,"type":"VEC3","min":[66.408226,89.027565,-127.538078],"max":[71.408226,92.727562,-121.138077]},{"bufferView":1,"byteOffset":0,"componentType":5126,"count":417,"type":"VEC3"},{"bufferView":2,"byteOffset":0,"componentType":5123,"count":2334,"type":"SCALAR"},{"bufferView":0,"byteOffset":5004,"componentType":5126,"count":488,"type":"VEC3","min":[63.8082237,89.527565,-129.93808],"max":[74.0082245,99.9275665,-127.738075]},{"bufferView":1,"byteOffset":5004,"componentType":5126,"count":488,"type":"VEC3"},{"bufferView":2,"byteOffset":4668,"componentType":5123,"count":2784,"type":"SCALAR"},{"bufferView":0,"byteOffset":10860,"componentType":5126,"count":32,"type":"VEC3","min":[64.108223,89.8275604,-129.838074],"max":[73.7082214,99.6275635,-129.838074]},{"bufferView":1,"byteOffset":10860,"componentType":5126,"count":32,"type":"VEC3"},{"bufferView":2,"byteOffset":10236,"componentType":5123,"count":90,"type":"SCALAR"}],"materials":[{"pbrMetallicRoughness":{"baseColorFactor":[0.960784316,0.960784316,0.964705884,1],"metallicFactor":0},"doubleSided":true},{"pbrMetallicRoughness":{"baseColorFactor":[0.450980395,0.839215696,0.933333337,0.196078435],"metallicFactor":0},"alphaMode":"BLEND","doubleSided":true}],"meshes":[{"primitives":[{"attributes":{"POSITION":0,"NORMAL":1},"mode":4,"indices":2,"material":0}]},{"primitives":[{"attributes":{"POSITION":3,"NORMAL":4},"mode":4,"indices":5,"material":0}]},{"primitives":[{"attributes":{"POSITION":6,"NORMAL":7},"mode":4,"indices":8,"material":1}]}],"nodes":[{"mesh":0},{"mesh":1},{"mesh":2},{"name":"mirror left v6","children":[0]},{"name":"mirror left v6","children":[1]},{"name":"mirror left v6","children":[2]}],"scenes":[{"nodes":[3,4,5]}]}