<?xml version="1.0" encoding="UTF-8"?>
<svg id="Layer_2" data-name="Layer 2" xmlns="http://www.w3.org/2000/svg" viewBox="0 0 540 80">
  <defs>
    <style>
      .cls-1 {
        fill: #004251;
      }
    </style>
  </defs>
  <g>
    <path class="cls-1" d="M496.14,14.87c-4.28,3.03-7.14,7.54-8.03,12.7-.76,4.42-.01,8.87,2.12,12.74,.36,.65,.75,1.28,1.19,1.9,6.24,8.83,18.51,10.93,27.36,4.69h0c8.85-6.25,10.96-18.51,4.72-27.34-6.24-8.83-18.51-10.93-27.36-4.69Zm24.52,6.08l-8.42,5.78c-.44,.3-1.03,.3-1.45-.04-.69-.55-1.49-.9-2.33-1.06-.54-.1-.94-.55-.99-1.1l-.95-10.12c5.35-.31,10.72,1.99,14.15,6.54Zm-22.72-3.54c1.27-.9,2.63-1.59,4.04-2.08l2.91,9.81c.15,.52-.05,1.07-.5,1.38,0,0,0,0,0,0-.58,.41-1.06,.92-1.42,1.49-.29,.46-.85,.68-1.37,.54l-9.86-2.66c1.08-3.42,3.23-6.38,6.22-8.48Zm-3.97,23.01c-2.27-3.21-3.3-7.04-2.96-10.91l10.13,1.3c.54,.07,.97,.48,1.06,1.01,.13,.76,.43,1.49,.9,2.16,.26,.37,.55,.69,.88,.97,.41,.36,.56,.93,.34,1.44l-4.04,9.37c-2.45-1.17-4.64-2.96-6.31-5.33Zm23.02,3.94c-4.08,2.88-9.02,3.64-13.51,2.53l2.96-10c.12-.41,.5-.68,.93-.67,.7,.01,1.42-.11,2.09-.38,.49-.2,1.06-.04,1.39,.36l6.55,7.85c-.14,.1-.27,.21-.41,.3Zm3.7-3.6l-8.09-6.56c-.33-.27-.44-.73-.26-1.12,.39-.87,.55-1.82,.45-2.77-.06-.53,.26-1.03,.75-1.24l9.39-4.02c1.98,5.27,1.11,11.22-2.24,15.7Z"/>
    <path class="cls-1" d="M536.22,32.68c.1-1.57,.08-3.13-.07-4.68l1.59-1.97-.63-2.97-2.19-1.01c-.58-1.78-1.33-3.52-2.26-5.18l.69-2.3-1.75-2.48-2.38-.11c-1.17-1.34-2.44-2.56-3.8-3.63l.15-2.08-2.55-1.65-1.8,.96c-1.84-.99-3.79-1.78-5.78-2.35l-1.08-2-3-.51-1.64,1.49c-1.71-.13-3.43-.11-5.14,.06l-1.61-1.35-2.98,.63-.88,1.81c-1.94,.59-3.84,1.39-5.67,2.41l-1.98-.55-2.49,1.76-.06,1.92c-1.46,1.23-2.79,2.58-3.96,4.05l-1.79,.16-1.66,2.55,.57,1.65c-1.01,1.89-1.81,3.9-2.39,6l-1.62,.91-.52,3,1.21,1.28c-.17,1.99-.14,3.97,.1,5.91l-1.09,1.29,.63,2.97,1.52,.74c.57,1.83,1.32,3.61,2.26,5.32,.11,.2,.23,.4,.34,.6l-.49,1.76,1.75,2.48,1.78,.05c1.04,1.22,2.17,2.34,3.37,3.34l-11.72,17.15c-1.29,1.88-.79,4.45,1.1,5.72,1.92,1.28,4.53,.72,5.76-1.24l11.06-17.68c1.58,.74,3.23,1.34,4.91,1.78l.98,1.74,3,.51,1.44-1.36c1.79,.12,3.6,.08,5.4-.13l1.68,1.35,2.98-.63,.9-1.94c1.86-.61,3.67-1.41,5.41-2.42l2.09,.63,2.49-1.76,.11-2.24c1.25-1.1,2.39-2.29,3.42-3.57l2.4-.26,1.66-2.55-.81-2.22c.85-1.68,1.53-3.45,2.04-5.29l2.09-1.12,.52-3-1.61-1.77Zm-8.34,1.71c-.94,5.45-3.95,10.21-8.47,13.4s-10.01,4.44-15.47,3.5c-5.45-.93-10.21-3.93-13.4-8.45-3.19-4.51-4.43-10-3.49-15.45,.94-5.45,3.95-10.21,8.47-13.4,4.52-3.19,10.01-4.44,15.47-3.5,5.45,.93,10.21,3.93,13.4,8.45,.46,.65,.88,1.32,1.25,2,2.25,4.09,3.04,8.78,2.23,13.45Z"/>
  </g>
  <g>
    <path class="cls-1" d="M29.37,9.81H1.29v54.68H18.26v-20.29h9.25c6.81,0,11.88-1.55,15.2-4.66,3.32-3.11,4.98-7.42,4.98-12.94s-1.52-9.51-4.57-12.42c-3.05-2.91-7.63-4.36-13.74-4.36Zm-.11,21.61c-1.32,1.13-3.61,1.7-6.86,1.7h-4.14v-12.2h4.81c3.16,0,5.31,.6,6.45,1.79,1.14,1.19,1.72,2.65,1.72,4.36s-.66,3.21-1.98,4.35Z"/>
    <path class="cls-1" d="M96.06,56.06v-17.49c0-1.86-.37-3.82-1.12-5.87s-1.77-3.64-3.06-4.76c-1.84-1.62-4.14-2.68-6.9-3.19-2.76-.51-6.42-.76-10.97-.76-2.83,0-5.47,.21-7.91,.63-2.44,.42-4.35,1.02-5.74,1.79-1.94,1.07-3.43,2.33-4.46,3.79-1.03,1.45-1.82,3.45-2.37,5.99l14.51,1.53c.6-1.72,1.38-2.88,2.35-3.51,1.24-.8,3.11-1.19,5.59-1.19,1.94,0,3.29,.37,4.07,1.12,.77,.75,1.16,2.05,1.16,3.92-1.89,.75-3.68,1.35-5.37,1.81-1.69,.46-5.38,1.26-11.08,2.41-4.75,.95-8.01,2.39-9.77,4.33-1.77,1.94-2.65,4.41-2.65,7.42,0,3.21,1.22,5.91,3.67,8.09,2.45,2.19,6.04,3.28,10.76,3.28,3.56,0,6.68-.55,9.36-1.64,1.96-.82,3.94-2.19,5.93-4.1,.17,1.14,.35,1.98,.52,2.52,.17,.54,.55,1.31,1.12,2.33h14.25c-.8-1.64-1.31-2.99-1.55-4.05-.24-1.06-.35-2.52-.35-4.38Zm-14.84-7.94c0,1.89-.3,3.43-.91,4.61-.61,1.18-1.64,2.18-3.1,3s-3.03,1.23-4.72,1.23-2.84-.38-3.67-1.14c-.83-.76-1.25-1.73-1.25-2.93,0-1.04,.42-1.98,1.27-2.8,.82-.79,2.77-1.6,5.86-2.42,2.26-.57,4.44-1.23,6.53-1.98v2.42Z"/>
    <path class="cls-1" d="M123.76,25.57c-1.45,1.06-2.87,2.99-4.23,5.8v-6.49h-14.21v39.61h15.25v-13.28c0-6.34,.78-10.67,2.35-12.98,1.09-1.64,2.64-2.46,4.62-2.46,1.04,0,2.46,.37,4.25,1.12l4.7-10.82c-2.66-1.39-5.11-2.09-7.35-2.09s-3.93,.53-5.39,1.59Z"/>
    <path class="cls-1" d="M164.28,54.64c-1.24,0-2.11-.42-2.61-1.27-.32-.55-.48-1.66-.48-3.35v-14.03h8.35v-11.11h-8.35V9.81l-15.22,7.8v7.27h-5.59v11.11h5.59v13.93c0,4.42,.43,7.62,1.29,9.59,.86,1.97,2.18,3.45,3.97,4.41s4.57,1.45,8.35,1.45c3.26,0,6.76-.41,10.52-1.23l-1.12-10.48c-2.01,.65-3.58,.97-4.7,.97Z"/>
    <path class="cls-1" d="M231.27,9.81h-28.09v54.68h16.97v-20.29h9.25c6.81,0,11.88-1.55,15.2-4.66,3.32-3.11,4.98-7.42,4.98-12.94s-1.52-9.51-4.57-12.42c-3.05-2.91-7.63-4.36-13.74-4.36Zm-.11,21.61c-1.32,1.13-3.61,1.7-6.86,1.7h-4.14v-12.2h4.81c3.16,0,5.31,.6,6.45,1.79,1.14,1.19,1.72,2.65,1.72,4.36s-.66,3.21-1.98,4.35Z"/>
    <rect class="cls-1" x="257.97" y="9.81" width="15.18" height="10.33"/>
    <rect class="cls-1" x="257.97" y="24.88" width="15.18" height="39.61"/>
    <path class="cls-1" d="M309.35,53.67c-1.36,1.02-3.03,1.53-5.02,1.53-2.39,0-4.35-.84-5.89-2.53-1.54-1.69-2.31-4.16-2.31-7.41,0-3.65,.78-6.37,2.33-8.17,1.55-1.8,3.59-2.7,6.1-2.7,1.99,0,3.57,.43,4.76,1.29,1.18,.86,1.99,2.13,2.44,3.82l14.29-1.9c-1.37-4.45-3.75-7.83-7.14-10.15-3.39-2.31-8.32-3.47-14.79-3.47-4.62,0-8.42,.61-11.38,1.83-1.86,.77-3.68,1.94-5.45,3.52-1.77,1.58-3.16,3.36-4.18,5.35-1.39,2.71-2.09,6.1-2.09,10.17s.57,7.03,1.72,9.39c1.14,2.36,2.72,4.42,4.74,6.17,2.01,1.75,4.42,3.02,7.22,3.8,2.8,.78,6.3,1.17,10.5,1.17s7.94-.61,10.76-1.83c2.82-1.22,5.14-2.93,6.96-5.13,1.81-2.2,3.12-4.8,3.92-7.81l-14.43-1.64c-.67,2.11-1.68,3.68-3.04,4.7Z"/>
    <polygon class="cls-1" points="378.03 24.88 359.35 24.88 348.01 38.03 348.01 9.81 332.49 9.81 332.49 64.49 348.01 64.49 348.01 54.19 353.73 48.61 361.75 64.49 378.85 64.49 363.82 38.75 378.03 24.88"/>
    <path class="cls-1" d="M414.74,26.55c-3.28-1.72-7.76-2.57-13.43-2.57-6.99,0-12.46,1.91-16.43,5.74-3.97,3.83-5.95,8.84-5.95,15.03,0,4.35,.99,8.14,2.96,11.36,1.98,3.22,4.47,5.57,7.48,7.05,3.01,1.48,7.14,2.22,12.38,2.22,6.04,0,10.68-.86,13.91-2.59,3.23-1.73,5.99-4.58,8.28-8.56l-14.96-1.38c-.95,1.19-1.83,2.03-2.65,2.5-1.34,.75-2.76,1.12-4.25,1.12-2.36,0-4.28-.86-5.74-2.57-1.04-1.19-1.7-3.01-1.98-5.45h30.44v-1.72c0-5.22-.86-9.46-2.57-12.72-1.72-3.26-4.21-5.74-7.5-7.46Zm-20.33,14.62c.25-2.36,.83-4.14,1.75-5.33,1.44-1.91,3.37-2.87,5.78-2.87,2.09,0,3.77,.63,5.05,1.9,1.28,1.27,2.07,3.37,2.37,6.3h-14.96Z"/>
    <path class="cls-1" d="M450.37,25.57c-1.45,1.06-2.87,2.99-4.23,5.8v-6.49h-14.21v39.61h15.25v-13.28c0-6.34,.78-10.67,2.35-12.98,1.09-1.64,2.64-2.46,4.62-2.46,1.04,0,2.46,.37,4.25,1.12l4.7-10.82c-2.66-1.39-5.11-2.09-7.35-2.09s-3.93,.53-5.39,1.59Z"/>
  </g>
</svg>