<?xml version="1.0" encoding="UTF-8"?>
<svg id="Layer_2" data-name="Layer 2" xmlns="http://www.w3.org/2000/svg" viewBox="0 0 500 670">
  <defs>
    <style>
      .cls-1 {
        fill: #004251;
      }
    </style>
  </defs>
  <g>
    <path class="cls-1" d="M180.51,126.82c-27.51,19.42-45.81,48.38-51.54,81.53-4.9,28.39-.09,56.94,13.58,81.81,2.29,4.17,4.84,8.24,7.63,12.19,40.06,56.69,118.85,70.19,175.63,30.09h0c56.78-40.1,70.39-118.85,30.32-175.53-40.06-56.69-118.85-70.19-175.63-30.09Zm157.39,39.06l-54.05,37.09c-2.83,1.94-6.64,1.9-9.32-.23-4.42-3.5-9.57-5.81-14.97-6.82-3.46-.65-6.06-3.53-6.39-7.04l-6.1-64.97c34.33-1.96,68.85,12.76,90.83,41.97Zm-145.86-22.75c8.18-5.77,16.9-10.2,25.91-13.37l18.66,62.97c.99,3.33-.34,6.85-3.19,8.85-.02,.01-.03,.02-.05,.03-3.75,2.65-6.8,5.91-9.13,9.55-1.89,2.96-5.44,4.39-8.83,3.48l-63.28-17.07c6.95-21.94,20.76-40.94,39.9-54.45Zm-25.51,147.69c-14.57-20.61-21.16-45.19-19-70.05l65.01,8.34c3.44,.44,6.21,3.05,6.8,6.46,.84,4.85,2.74,9.6,5.77,13.88,1.66,2.35,3.56,4.42,5.64,6.21,2.66,2.28,3.57,5.99,2.18,9.21l-25.91,60.17c-15.7-7.53-29.76-19.02-40.5-34.22Zm147.77,25.32c-26.16,18.47-57.87,23.39-86.75,16.26l19.02-64.17c.78-2.62,3.22-4.35,5.95-4.3,4.52,.08,9.09-.72,13.42-2.47,3.16-1.27,6.78-.29,8.95,2.32l42.03,50.4c-.87,.65-1.73,1.32-2.63,1.95Zm23.73-23.09l-51.92-42.1c-2.13-1.73-2.8-4.66-1.67-7.16,2.52-5.56,3.52-11.71,2.88-17.78-.36-3.41,1.64-6.64,4.8-7.99l60.31-25.79c12.73,33.83,7.12,72.04-14.4,100.82Z"/>
    <path class="cls-1" d="M437.77,241.12c.66-10.07,.5-20.11-.47-30.03l10.18-12.63-4.05-19.08-14.09-6.51c-3.7-11.45-8.54-22.57-14.49-33.22l4.45-14.77-11.26-15.93-15.26-.74c-7.5-8.63-15.68-16.41-24.4-23.33l.94-13.32-16.37-10.62-11.58,6.15c-11.84-6.38-24.3-11.42-37.13-15.08l-6.92-12.86-19.24-3.3-10.55,9.56c-10.96-.85-22.02-.73-33.03,.38l-10.32-8.64-19.1,4.07-5.68,11.61c-12.46,3.79-24.66,8.94-36.38,15.5l-12.7-3.53-15.95,11.27-.35,12.32c-9.39,7.88-17.89,16.59-25.43,26l-11.49,1.02-10.64,16.37,3.64,10.61c-6.5,12.14-11.64,25.05-15.32,38.54l-10.38,5.85-3.32,19.23,7.77,8.21c-1.1,12.75-.88,25.45,.62,37.95l-6.97,8.3,4.05,19.08,9.78,4.77c3.65,11.77,8.49,23.2,14.5,34.14,.72,1.3,1.46,2.59,2.21,3.88l-3.16,11.29,11.26,15.93,11.43,.31c6.7,7.84,13.95,15,21.66,21.45l-75.26,110.12c-8.26,12.09-5.08,28.58,7.09,36.7,12.35,8.25,29.09,4.65,36.97-7.95l71.01-113.47c10.17,4.78,20.72,8.61,31.52,11.46l6.3,11.17,19.24,3.3,9.23-8.72c11.52,.8,23.14,.54,34.69-.83l10.78,8.67,19.1-4.07,5.79-12.47c11.91-3.9,23.56-9.07,34.75-15.54l13.42,4.02,15.95-11.27,.71-14.35c8.01-7.04,15.34-14.71,21.95-22.91l15.41-1.67,10.65-16.37-5.23-14.27c5.44-10.78,9.83-22.13,13.09-33.94l13.4-7.21,3.32-19.23-10.34-11.39Zm-53.56,10.95c-6.04,34.98-25.36,65.54-54.38,86.04-29.03,20.5-64.29,28.48-99.29,22.49-35-6-65.56-25.26-86.04-54.24-20.47-28.98-28.43-64.2-22.38-99.19,6.04-34.98,25.36-65.54,54.38-86.04,29.03-20.5,64.29-28.48,99.29-22.49,35,6,65.56,25.26,86.04,54.24,2.94,4.17,5.63,8.46,8.05,12.86,14.43,26.24,19.51,56.37,14.33,86.33Z"/>
  </g>
  <g>
    <path class="cls-1" d="M94.61,604.99v11.32H57.48v-53.4h12.67v42.07h24.45Z"/>
    <path class="cls-1" d="M94.38,589.62c0-16.87,11.02-27.9,27.37-27.9s27.37,11.02,27.37,27.9-11.1,27.9-27.37,27.9-27.37-11.02-27.37-27.9Zm41.62,0c0-10.57-5.7-16.87-14.25-16.87s-14.17,6.3-14.17,16.87,5.62,16.88,14.17,16.88,14.25-6.3,14.25-16.88Z"/>
    <path class="cls-1" d="M185.81,607.02h-22.2l-3.07,9.3h-12.97l19.65-53.4h15.07l20.1,53.4h-13.42l-3.15-9.3Zm-3.6-10.57l-3.07-9.15c-1.42-3.98-3-8.85-4.5-13.5-1.5,4.65-3.07,9.52-4.42,13.5l-3.07,9.15h15.07Z"/>
    <path class="cls-1" d="M255.03,589.62c0,15.97-9,26.7-27.3,26.7h-21.9v-53.4h21.9c18.3,0,27.3,10.72,27.3,26.7Zm-13.2,0c0-11.1-5.62-15.97-14.32-15.97h-9v31.95h9c8.7,0,14.32-4.88,14.32-15.97Z"/>
    <path class="cls-1" d="M260.88,562.92h12.67v53.4h-12.67v-53.4Z"/>
    <path class="cls-1" d="M328.46,562.92v53.4h-13.65l-13.05-21.3c-3-4.95-5.85-9.67-8.32-14.55,.22,8.7,.3,16.5,.3,24.67v11.17h-12.07v-53.4h13.65l13.05,21.3c2.55,4.2,5.85,9.75,8.33,14.7-.23-8.77-.3-16.57-.3-24.82v-11.17h12.08Z"/>
    <path class="cls-1" d="M387.55,586.54v29.77h-8.85l-1.5-7.05c-3.6,5.47-9.9,8.25-17.32,8.25-15.45,0-25.57-10.95-25.57-27.9s10.2-27.9,27.07-27.9c13.87,0,23.77,7.35,25.5,19.2h-12.97c-1.5-5.1-5.85-8.25-12.45-8.25-8.7,0-13.95,6.38-13.95,16.95s5.4,16.95,14.55,16.95c6.52,0,11.85-3.97,12.75-10.12h-11.85v-9.9h24.6Z"/>
    <path class="cls-1" d="M393.18,603.42h13.2v12.9h-13.2v-12.9Z"/>
    <path class="cls-1" d="M411.48,603.42h13.2v12.9h-13.2v-12.9Z"/>
    <path class="cls-1" d="M429.78,603.42h13.2v12.9h-13.2v-12.9Z"/>
  </g>
</svg>