<?xml version="1.0" encoding="UTF-8"?>
<svg id="Layer_2" data-name="Layer 2" xmlns="http://www.w3.org/2000/svg" viewBox="0 0 310 200">
  <defs>
    <style>
      .cls-1 {
        fill: #004251;
      }
    </style>
  </defs>
  <g>
    <path class="cls-1" d="M228.81,30.56c-7.98,5.63-13.28,14.03-14.94,23.64-1.42,8.23-.03,16.51,3.94,23.72,.67,1.21,1.4,2.39,2.21,3.53,11.62,16.44,34.46,20.35,50.92,8.72h0c16.46-11.63,20.41-34.46,8.79-50.9-11.62-16.44-34.46-20.35-50.92-8.72Zm45.63,11.33l-15.67,10.75c-.82,.56-1.92,.55-2.7-.07-1.28-1.02-2.78-1.68-4.34-1.98-1-.19-1.76-1.02-1.85-2.04l-1.77-18.84c9.95-.57,19.96,3.7,26.34,12.17Zm-42.29-6.6c2.37-1.67,4.9-2.96,7.51-3.88l5.41,18.26c.29,.97-.1,1.99-.92,2.57,0,0,0,0-.01,0-1.09,.77-1.97,1.71-2.65,2.77-.55,.86-1.58,1.27-2.56,1.01l-18.35-4.95c2.01-6.36,6.02-11.87,11.57-15.79Zm-7.4,42.82c-4.22-5.98-6.13-13.1-5.51-20.31l18.85,2.42c1,.13,1.8,.88,1.97,1.87,.24,1.41,.79,2.78,1.67,4.03,.48,.68,1.03,1.28,1.64,1.8,.77,.66,1.04,1.74,.63,2.67l-7.51,17.45c-4.55-2.18-8.63-5.52-11.74-9.92Zm42.85,7.34c-7.59,5.36-16.78,6.78-25.15,4.71l5.51-18.6c.23-.76,.93-1.26,1.73-1.25,1.31,.02,2.63-.21,3.89-.72,.92-.37,1.96-.08,2.6,.67l12.19,14.61c-.25,.19-.5,.38-.76,.57Zm6.88-6.7l-15.05-12.21c-.62-.5-.81-1.35-.48-2.08,.73-1.61,1.02-3.4,.84-5.16-.1-.99,.48-1.93,1.39-2.32l17.49-7.48c3.69,9.81,2.06,20.89-4.18,29.23Z"/>
    <path class="cls-1" d="M303.4,63.71c.19-2.92,.15-5.83-.14-8.71l2.95-3.66-1.17-5.53-4.08-1.89c-1.07-3.32-2.48-6.54-4.2-9.63l1.29-4.28-3.26-4.62-4.43-.21c-2.18-2.5-4.55-4.76-7.07-6.76l.27-3.86-4.75-3.08-3.36,1.78c-3.43-1.85-7.05-3.31-10.76-4.37l-2.01-3.73-5.58-.96-3.06,2.77c-3.18-.25-6.38-.21-9.58,.11l-2.99-2.51-5.54,1.18-1.65,3.36c-3.61,1.1-7.15,2.59-10.55,4.49l-3.68-1.02-4.63,3.27-.1,3.57c-2.72,2.29-5.19,4.81-7.37,7.54l-3.33,.29-3.09,4.75,1.06,3.08c-1.88,3.52-3.38,7.26-4.44,11.17l-3.01,1.7-.96,5.58,2.25,2.38c-.32,3.7-.26,7.38,.18,11l-2.02,2.41,1.17,5.53,2.84,1.38c1.06,3.41,2.46,6.73,4.2,9.9,.21,.38,.42,.75,.64,1.13l-.92,3.27,3.26,4.62,3.31,.09c1.94,2.27,4.05,4.35,6.28,6.22l-21.82,31.93c-2.4,3.5-1.47,8.29,2.06,10.64,3.58,2.39,8.43,1.35,10.72-2.31l20.59-32.9c2.95,1.39,6.01,2.5,9.14,3.32l1.83,3.24,5.58,.96,2.68-2.53c3.34,.23,6.71,.16,10.06-.24l3.13,2.51,5.54-1.18,1.68-3.62c3.45-1.13,6.83-2.63,10.08-4.5l3.89,1.17,4.63-3.27,.21-4.16c2.32-2.04,4.45-4.26,6.36-6.64l4.47-.48,3.09-4.75-1.52-4.14c1.58-3.13,2.85-6.42,3.8-9.84l3.89-2.09,.96-5.58-3-3.3Zm-15.53,3.18c-1.75,10.14-7.35,19-15.77,24.95-8.42,5.94-18.64,8.26-28.79,6.52-10.15-1.74-19.01-7.32-24.95-15.73-5.94-8.4-8.24-18.62-6.49-28.76,1.75-10.14,7.35-19,15.77-24.95,8.42-5.94,18.64-8.26,28.79-6.52,10.15,1.74,19.01,7.32,24.95,15.73,.85,1.21,1.63,2.45,2.33,3.73,4.18,7.61,5.66,16.34,4.16,25.03Z"/>
  </g>
  <g>
    <path class="cls-1" d="M32.94,60.13H4.86v54.68H21.83v-20.29h9.25c6.81,0,11.88-1.55,15.2-4.66,3.32-3.11,4.98-7.42,4.98-12.94s-1.52-9.51-4.57-12.42c-3.05-2.91-7.63-4.36-13.74-4.36Zm-.11,21.61c-1.32,1.13-3.61,1.7-6.86,1.7h-4.14v-12.2h4.81c3.16,0,5.31,.6,6.45,1.79,1.14,1.19,1.72,2.65,1.72,4.36s-.66,3.21-1.98,4.35Z"/>
    <path class="cls-1" d="M99.63,106.38v-17.49c0-1.86-.37-3.82-1.12-5.87s-1.77-3.64-3.06-4.76c-1.84-1.62-4.14-2.68-6.9-3.19-2.76-.51-6.42-.76-10.97-.76-2.83,0-5.47,.21-7.91,.63-2.44,.42-4.35,1.02-5.74,1.79-1.94,1.07-3.43,2.33-4.46,3.79-1.03,1.45-1.82,3.45-2.37,5.99l14.51,1.53c.6-1.72,1.38-2.88,2.35-3.51,1.24-.8,3.11-1.19,5.59-1.19,1.94,0,3.29,.37,4.07,1.12,.77,.75,1.16,2.05,1.16,3.92-1.89,.75-3.68,1.35-5.37,1.81-1.69,.46-5.38,1.26-11.08,2.41-4.75,.95-8.01,2.39-9.77,4.33-1.77,1.94-2.65,4.41-2.65,7.42,0,3.21,1.22,5.91,3.67,8.09,2.45,2.19,6.04,3.28,10.76,3.28,3.56,0,6.68-.55,9.36-1.64,1.96-.82,3.94-2.19,5.93-4.1,.17,1.14,.35,1.98,.52,2.52,.17,.54,.55,1.31,1.12,2.33h14.25c-.8-1.64-1.31-2.99-1.55-4.05-.24-1.06-.35-2.52-.35-4.38Zm-14.84-7.94c0,1.89-.3,3.43-.91,4.61-.61,1.18-1.64,2.18-3.1,3s-3.03,1.23-4.72,1.23-2.84-.38-3.67-1.14c-.83-.76-1.25-1.73-1.25-2.93,0-1.04,.42-1.98,1.27-2.8,.82-.79,2.77-1.6,5.86-2.42,2.26-.57,4.44-1.23,6.53-1.98v2.42Z"/>
    <path class="cls-1" d="M127.33,75.88c-1.45,1.06-2.87,2.99-4.23,5.8v-6.49h-14.21v39.61h15.25v-13.28c0-6.34,.78-10.67,2.35-12.98,1.09-1.64,2.64-2.46,4.62-2.46,1.04,0,2.46,.37,4.25,1.12l4.7-10.82c-2.66-1.39-5.11-2.09-7.35-2.09s-3.93,.53-5.39,1.59Z"/>
    <path class="cls-1" d="M167.85,104.96c-1.24,0-2.11-.42-2.61-1.27-.32-.55-.48-1.66-.48-3.35v-14.03h8.35v-11.11h-8.35v-15.07l-15.22,7.8v7.27h-5.59v11.11h5.59v13.93c0,4.42,.43,7.62,1.29,9.59,.86,1.97,2.18,3.45,3.97,4.41s4.57,1.45,8.35,1.45c3.26,0,6.76-.41,10.52-1.23l-1.12-10.48c-2.01,.65-3.58,.97-4.7,.97Z"/>
    <path class="cls-1" d="M32.94,138.42H4.86v54.68H21.83v-20.29h9.25c6.81,0,11.88-1.55,15.2-4.66,3.32-3.11,4.98-7.42,4.98-12.94s-1.52-9.51-4.57-12.42c-3.05-2.91-7.63-4.36-13.74-4.36Zm-.11,21.61c-1.32,1.13-3.61,1.7-6.86,1.7h-4.14v-12.2h4.81c3.16,0,5.31,.6,6.45,1.79,1.14,1.19,1.72,2.65,1.72,4.36s-.66,3.21-1.98,4.35Z"/>
    <rect class="cls-1" x="59.65" y="138.42" width="15.18" height="10.33"/>
    <rect class="cls-1" x="59.65" y="153.49" width="15.18" height="39.61"/>
    <path class="cls-1" d="M111.03,182.28c-1.36,1.02-3.03,1.53-5.02,1.53-2.39,0-4.35-.84-5.89-2.53-1.54-1.69-2.31-4.16-2.31-7.41,0-3.65,.78-6.37,2.33-8.17,1.55-1.8,3.59-2.7,6.1-2.7,1.99,0,3.57,.43,4.76,1.29,1.18,.86,1.99,2.13,2.44,3.82l14.29-1.9c-1.37-4.45-3.75-7.83-7.14-10.15-3.39-2.31-8.32-3.47-14.79-3.47-4.62,0-8.42,.61-11.38,1.83-1.86,.77-3.68,1.94-5.45,3.52-1.77,1.58-3.16,3.36-4.18,5.35-1.39,2.71-2.09,6.1-2.09,10.17s.57,7.03,1.72,9.39c1.14,2.36,2.72,4.42,4.74,6.17,2.01,1.75,4.42,3.02,7.22,3.8,2.8,.78,6.3,1.17,10.5,1.17s7.94-.61,10.76-1.83c2.82-1.22,5.14-2.93,6.96-5.13,1.81-2.2,3.12-4.8,3.92-7.81l-14.43-1.64c-.67,2.11-1.68,3.68-3.04,4.7Z"/>
    <polygon class="cls-1" points="179.71 153.49 161.03 153.49 149.69 166.64 149.69 138.42 134.17 138.42 134.17 193.1 149.69 193.1 149.69 182.8 155.4 177.22 163.43 193.1 180.53 193.1 165.5 167.36 179.71 153.49"/>
    <path class="cls-1" d="M216.41,155.16c-3.28-1.72-7.76-2.57-13.43-2.57-6.99,0-12.46,1.91-16.43,5.74-3.97,3.83-5.95,8.84-5.95,15.03,0,4.35,.99,8.14,2.96,11.36,1.98,3.22,4.47,5.57,7.48,7.05,3.01,1.48,7.14,2.22,12.38,2.22,6.04,0,10.68-.86,13.91-2.59,3.23-1.73,5.99-4.58,8.28-8.56l-14.96-1.38c-.95,1.19-1.83,2.03-2.65,2.5-1.34,.75-2.76,1.12-4.25,1.12-2.36,0-4.28-.86-5.74-2.57-1.04-1.19-1.7-3.01-1.98-5.45h30.44v-1.72c0-5.22-.86-9.46-2.57-12.72-1.72-3.26-4.21-5.74-7.5-7.46Zm-20.33,14.62c.25-2.36,.83-4.14,1.75-5.33,1.44-1.91,3.37-2.87,5.78-2.87,2.09,0,3.77,.63,5.05,1.9,1.28,1.27,2.07,3.37,2.37,6.3h-14.96Z"/>
    <path class="cls-1" d="M252.05,154.18c-1.45,1.06-2.87,2.99-4.23,5.8v-6.49h-14.21v39.61h15.25v-13.28c0-6.34,.78-10.67,2.35-12.98,1.09-1.64,2.64-2.46,4.62-2.46,1.04,0,2.46,.37,4.25,1.12l4.7-10.82c-2.66-1.39-5.11-2.09-7.35-2.09s-3.93,.53-5.39,1.59Z"/>
  </g>
</svg>