{"buffers":[{"uri":"Rear driveshaft isolated.bin","byteLength":58896}],"asset":{"version":"2.0","generator":"gltfpack 0.16"},"bufferViews":[{"buffer":0,"byteOffset":0,"byteLength":21996,"byteStride":12,"target":34962},{"buffer":0,"byteOffset":21996,"byteLength":21996,"byteStride":12,"target":34962},{"buffer":0,"byteOffset":43992,"byteLength":14904,"target":34963}],"accessors":[{"bufferView":0,"byteOffset":0,"componentType":5126,"count":1833,"type":"VEC3","min":[-5.9000001,27.1000004,-291.600006],"max":[5.9000001,38.9000015,-231.899994]},{"bufferView":1,"byteOffset":0,"componentType":5126,"count":1833,"type":"VEC3"},{"bufferView":2,"byteOffset":0,"componentType":5123,"count":7452,"type":"SCALAR"}],"materials":[{"pbrMetallicRoughness":{"baseColorFactor":[0.333333343,0.564705908,0.427450985,1],"metallicFactor":0},"doubleSided":true}],"meshes":[{"primitives":[{"attributes":{"POSITION":0,"NORMAL":1},"mode":4,"indices":2,"material":0}]}],"nodes":[{"mesh":0},{"name":"Shaft A","children":[0]}],"scenes":[{"nodes":[1]}]}