{"buffers":[{"uri":"Spider isolated.bin","byteLength":28056}],"asset":{"version":"2.0","generator":"gltfpack 0.16"},"bufferViews":[{"buffer":0,"byteOffset":0,"byteLength":11232,"byteStride":12,"target":34962},{"buffer":0,"byteOffset":11232,"byteLength":11232,"byteStride":12,"target":34962},{"buffer":0,"byteOffset":22464,"byteLength":5592,"target":34963}],"accessors":[{"bufferView":0,"byteOffset":0,"componentType":5126,"count":936,"type":"VEC3","min":[-5.4000001,27.6000004,-228.800003],"max":[5.4000001,38.4000015,-225.699997]},{"bufferView":1,"byteOffset":0,"componentType":5126,"count":936,"type":"VEC3"},{"bufferView":2,"byteOffset":0,"componentType":5123,"count":2796,"type":"SCALAR"}],"materials":[{"pbrMetallicRoughness":{"baseColorFactor":[0.392156869,0.796078444,0.43921569,1],"metallicFactor":0},"doubleSided":true}],"meshes":[{"primitives":[{"attributes":{"POSITION":0,"NORMAL":1},"mode":4,"indices":2,"material":0}]}],"nodes":[{"mesh":0},{"name":"Spider","children":[0]}],"scenes":[{"nodes":[1]}]}